<svg xmlns="http://www.w3.org/2000/svg" enable-background="new 0 0 64 64" viewBox="0 0 64 64"><path d="M55,2H9C8.4,2,8,2.4,8,3v58c0,0.6,0.4,1,1,1h46c0.6,0,1-0.4,1-1V3C56,2.4,55.6,2,55,2z M54,60H10V4h44V60z"/><path d="M12,58.9h40c0.5,0,0.9-0.4,0.9-0.9V6c0-0.5-0.4-0.9-0.9-0.9H12c-0.5,0-0.9,0.4-0.9,0.9v52C11.1,58.5,11.5,58.9,12,58.9z
		 M20.9,13.5c0-0.3,0.3-0.6,0.6-0.6s0.6,0.3,0.6,0.6v1.7h-1.2V13.5z M20.9,17h1.2v1.5c0,0.3-0.3,0.6-0.6,0.6s-0.6-0.3-0.6-0.6V17z
		 M19.1,15.2h-1.2v-1.7c0-0.3,0.3-0.6,0.6-0.6s0.6,0.3,0.6,0.6V15.2z M19.1,17v1.5c0,0.3-0.3,0.6-0.6,0.6s-0.6-0.3-0.6-0.6V17H19.1z
		 M18.5,20.9c0.6,0,1.1-0.2,1.5-0.5c0.4,0.3,0.9,0.5,1.5,0.5c1.3,0,2.4-1.1,2.4-2.4V17h1.2v1.5c0,1.3,1.1,2.4,2.4,2.4
		s2.4-1.1,2.4-2.4V17h6.2v1.5c0,1.3,1.1,2.4,2.4,2.4c0.6,0,1.1-0.2,1.5-0.5c0.4,0.3,0.9,0.5,1.5,0.5s1.1-0.2,1.5-0.5
		c0.4,0.3,0.9,0.5,1.5,0.5c1.3,0,2.4-1.1,2.4-2.4V17h4.2v14.1h-4.2v-1.6c0-1.3-1.1-2.4-2.4-2.4c-0.6,0-1.1,0.2-1.5,0.5
		c-0.4-0.3-0.9-0.5-1.5-0.5c-1.3,0-2.4,1.1-2.4,2.4v1.6h-3.2v-1.6c0-1.3-1.1-2.4-2.4-2.4c-0.6,0-1.1,0.2-1.5,0.5
		c-0.4-0.3-0.9-0.5-1.5-0.5c-1.3,0-2.4,1.1-2.4,2.4v1.6h-1.2v-1.6c0-1.3-1.1-2.4-2.4-2.4s-2.4,1.1-2.4,2.4v1.6h-1.2v-1.6
		c0-1.3-1.1-2.4-2.4-2.4s-2.4,1.1-2.4,2.4v1.6h-3.2V17h3.2v1.5C16.1,19.8,17.2,20.9,18.5,20.9z M28.1,15.2h-1.2v-1.7
		c0-0.3,0.3-0.6,0.6-0.6s0.6,0.3,0.6,0.6V15.2z M28.1,17v1.5c0,0.3-0.3,0.6-0.6,0.6s-0.6-0.3-0.6-0.6V17H28.1z M40.9,13.5
		c0-0.3,0.3-0.6,0.6-0.6s0.6,0.3,0.6,0.6v1.7h-1.2V13.5z M43.9,13.5c0-0.3,0.3-0.6,0.6-0.6s0.6,0.3,0.6,0.6v1.7h-1.2V13.5z
		 M42.1,18.5c0,0.3-0.3,0.6-0.6,0.6s-0.6-0.3-0.6-0.6V17h1.2V18.5z M43.9,17h1.2v1.5c0,0.3-0.3,0.6-0.6,0.6s-0.6-0.3-0.6-0.6V17z
		 M39.1,15.2h-1.2v-1.7c0-0.3,0.3-0.6,0.6-0.6s0.6,0.3,0.6,0.6V15.2z M39.1,17v1.5c0,0.3-0.3,0.6-0.6,0.6s-0.6-0.3-0.6-0.6V17H39.1z
		 M42.1,50.5c0,0.3-0.3,0.6-0.6,0.6s-0.6-0.3-0.6-0.6v-1.6h1.2V50.5z M39.1,50.5c0,0.3-0.3,0.6-0.6,0.6s-0.6-0.3-0.6-0.6v-1.6h1.2
		V50.5z M36.1,50.5c0,0.3-0.3,0.6-0.6,0.6s-0.6-0.3-0.6-0.6v-1.6h1.2V50.5z M37.9,45.5c0-0.3,0.3-0.6,0.6-0.6s0.6,0.3,0.6,0.6v1.6
		h-1.2V45.5z M40.9,45.5c0-0.3,0.3-0.6,0.6-0.6s0.6,0.3,0.6,0.6v1.6h-1.2V45.5z M36.1,47.1h-1.2v-1.6c0-0.3,0.3-0.6,0.6-0.6
		s0.6,0.3,0.6,0.6V47.1z M43.9,48.9h1.2v1.6c0,0.3-0.3,0.6-0.6,0.6s-0.6-0.3-0.6-0.6V48.9z M43.9,47.1v-1.6c0-0.3,0.3-0.6,0.6-0.6
		s0.6,0.3,0.6,0.6v1.6H43.9z M44.5,43.1c-0.6,0-1.1,0.2-1.5,0.5c-0.4-0.3-0.9-0.5-1.5-0.5s-1.1,0.2-1.5,0.5
		c-0.4-0.3-0.9-0.5-1.5-0.5s-1.1,0.2-1.5,0.5c-0.4-0.3-0.9-0.5-1.5-0.5c-1.3,0-2.4,1.1-2.4,2.4v1.6h-9.2v-1.6c0-1.3-1.1-2.4-2.4-2.4
		c-0.6,0-1.1,0.2-1.5,0.5c-0.4-0.3-0.9-0.5-1.5-0.5c-1.3,0-2.4,1.1-2.4,2.4v1.6h-3.2V32.9h3.2v1.6c0,1.3,1.1,2.4,2.4,2.4
		s2.4-1.1,2.4-2.4v-1.6h1.2v1.6c0,1.3,1.1,2.4,2.4,2.4s2.4-1.1,2.4-2.4v-1.6h1.2v1.6c0,1.3,1.1,2.4,2.4,2.4c0.6,0,1.1-0.2,1.5-0.5
		c0.4,0.3,0.9,0.5,1.5,0.5c1.3,0,2.4-1.1,2.4-2.4v-1.6h3.2v1.6c0,1.3,1.1,2.4,2.4,2.4c0.6,0,1.1-0.2,1.5-0.5
		c0.4,0.3,0.9,0.5,1.5,0.5c1.3,0,2.4-1.1,2.4-2.4v-1.6h4.2v14.2h-4.2v-1.6C46.9,44.2,45.8,43.1,44.5,43.1z M19.1,50.5
		c0,0.3-0.3,0.6-0.6,0.6s-0.6-0.3-0.6-0.6v-1.6h1.2V50.5z M19.1,47.1h-1.2v-1.6c0-0.3,0.3-0.6,0.6-0.6s0.6,0.3,0.6,0.6V47.1z
		 M20.9,48.9h1.2v1.6c0,0.3-0.3,0.6-0.6,0.6s-0.6-0.3-0.6-0.6V48.9z M20.9,47.1v-1.6c0-0.3,0.3-0.6,0.6-0.6s0.6,0.3,0.6,0.6v1.6
		H20.9z M19.1,31.1h-1.2v-1.6c0-0.3,0.3-0.6,0.6-0.6s0.6,0.3,0.6,0.6V31.1z M19.1,32.9v1.6c0,0.3-0.3,0.6-0.6,0.6s-0.6-0.3-0.6-0.6
		v-1.6H19.1z M25.1,31.1h-1.2v-1.6c0-0.3,0.3-0.6,0.6-0.6s0.6,0.3,0.6,0.6V31.1z M25.1,32.9v1.6c0,0.3-0.3,0.6-0.6,0.6
		s-0.6-0.3-0.6-0.6v-1.6H25.1z M32.9,29.5c0-0.3,0.3-0.6,0.6-0.6s0.6,0.3,0.6,0.6v1.6h-1.2V29.5z M32.9,32.9h1.2v1.6
		c0,0.3-0.3,0.6-0.6,0.6s-0.6-0.3-0.6-0.6V32.9z M31.1,31.1h-1.2v-1.6c0-0.3,0.3-0.6,0.6-0.6s0.6,0.3,0.6,0.6V31.1z M31.1,32.9v1.6
		c0,0.3-0.3,0.6-0.6,0.6s-0.6-0.3-0.6-0.6v-1.6H31.1z M43.9,29.5c0-0.3,0.3-0.6,0.6-0.6s0.6,0.3,0.6,0.6v1.6h-1.2V29.5z M43.9,32.9
		h1.2v1.6c0,0.3-0.3,0.6-0.6,0.6s-0.6-0.3-0.6-0.6V32.9z M42.1,31.1h-1.2v-1.6c0-0.3,0.3-0.6,0.6-0.6s0.6,0.3,0.6,0.6V31.1z
		 M42.1,32.9v1.6c0,0.3-0.3,0.6-0.6,0.6s-0.6-0.3-0.6-0.6v-1.6H42.1z M12.9,57.1v-8.2h3.2v1.6c0,1.3,1.1,2.4,2.4,2.4
		c0.6,0,1.1-0.2,1.5-0.5c0.4,0.3,0.9,0.5,1.5,0.5c1.3,0,2.4-1.1,2.4-2.4v-1.6h9.2v1.6c0,1.3,1.1,2.4,2.4,2.4c0.6,0,1.1-0.2,1.5-0.5
		c0.4,0.3,0.9,0.5,1.5,0.5s1.1-0.2,1.5-0.5c0.4,0.3,0.9,0.5,1.5,0.5s1.1-0.2,1.5-0.5c0.4,0.3,0.9,0.5,1.5,0.5c1.3,0,2.4-1.1,2.4-2.4
		v-1.6h4.2v8.2H12.9z M51.1,6.9v8.3h-4.2v-1.7c0-1.3-1.1-2.4-2.4-2.4c-0.6,0-1.1,0.2-1.5,0.5c-0.4-0.3-0.9-0.5-1.5-0.5
		s-1.1,0.2-1.5,0.5c-0.4-0.3-0.9-0.5-1.5-0.5c-1.3,0-2.4,1.1-2.4,2.4v1.7h-6.2v-1.7c0-1.3-1.1-2.4-2.4-2.4s-2.4,1.1-2.4,2.4v1.7
		h-1.2v-1.7c0-1.3-1.1-2.4-2.4-2.4c-0.6,0-1.1,0.2-1.5,0.5c-0.4-0.3-0.9-0.5-1.5-0.5c-1.3,0-2.4,1.1-2.4,2.4v1.7h-3.2V6.9H51.1z"/></svg>