<svg xmlns="http://www.w3.org/2000/svg" enable-background="new 0 0 64 64" viewBox="0 0 64 64"><path d="M53,2c-2.7,0-5,2.2-5,5c0,1,0.3,1.9,0.8,2.7L35.8,21.8c-1.7-1.4-3.9-2.2-6.1-2.2c-3.2,0-6.1,1.6-7.8,4l-6.1-3.1
	c0.1-0.3,0.1-0.7,0.1-1c0-2.7-2.2-5-5-5s-5,2.2-5,5s2.2,5,5,5c1.7,0,3.2-0.8,4.1-2.1l5.9,3.1c-0.5,1.1-0.8,2.4-0.8,3.7
	c0,2.1,0.7,4,1.9,5.7l-8.4,7.8c-0.8-0.5-1.7-0.8-2.8-0.8c-2.7,0-5,2.2-5,5s2.2,5,5,5s5-2.2,5-5c0-1-0.3-1.9-0.8-2.7l8.3-7.8
	c1.7,1.5,4,2.4,6.3,2.4c1.8,0,3.5-0.5,4.9-1.4l8.7,16.8c-0.6,0.8-1,1.8-1,2.9c0,2.7,2.2,5,5,5s5-2.2,5-5s-2.2-5-5-5
	c-0.9,0-1.7,0.3-2.5,0.7l-8.6-16.6c1.8-1.7,3-4.2,3-6.9c0-2.2-0.7-4.2-2-5.9l13.1-12.2C51.1,11.6,52,12,53,12c2.7,0,5-2.2,5-5
	S55.8,2,53,2z M11,22.5c-1.6,0-3-1.3-3-3s1.3-3,3-3s3,1.3,3,3S12.6,22.5,11,22.5z M50.3,57c0,1.6-1.3,3-3,3s-3-1.3-3-3s1.3-3,3-3
	S50.3,55.4,50.3,57z M11,49.8c-1.6,0-3-1.3-3-3s1.3-3,3-3s3,1.3,3,3S12.6,49.8,11,49.8z M29.7,36.7c-2.1,0-4.1-0.9-5.5-2.5
	c-1.3-1.4-2-3.2-2-5.1c0-4.2,3.4-7.5,7.5-7.5c2,0,4,0.8,5.4,2.3c1.4,1.4,2.1,3.3,2.1,5.2C37.3,33.3,33.9,36.7,29.7,36.7z M53,10
	c-1.6,0-3-1.3-3-3s1.3-3,3-3s3,1.3,3,3S54.7,10,53,10z"/></svg>