<svg xmlns="http://www.w3.org/2000/svg" enable-background="new 0 0 64 64" viewBox="0 0 64 64"><path d="M63.4,29.8c-0.1-0.1-0.1-0.2-0.2-0.3c-0.8-1.1-2.1-1.6-3.5-1.5c-0.5,0-0.9,0.2-1.4,0.4c-2.6-1.1-6.6-2-11.4-2.6
	c3.9-5,8.9-12.5,6.4-15.1c-2.3-2.3-8.5,1.4-13.6,5.2c-0.5-0.4-1.1-0.7-1.8-0.9C37,8.9,35.3,2,32,2c-3.3,0-5.2,7.3-6.1,15.1
	c-1.7-1.3-3.3-2.5-4.8-3.5c-5.3-3.5-8.7-4.4-10.3-2.9c-1.6,1.6-0.6,4.9,2.9,10.3c1,1.5,2.2,3.1,3.5,4.8C9.3,26.8,2,28.7,2,32
	c0,2.5,4.1,4.4,12.1,5.7c0.1,0.8,0.5,1.5,1.1,2.1c0.1,0.1,0.3,0.3,0.4,0.4c-5,6.8-6.6,11.2-4.8,13c0.5,0.5,1.2,0.7,2,0.7
	c3.4,0,9-3.9,13.1-7.1c0.6,4.9,1.5,8.8,2.5,11.4c-0.3,0.6-0.4,1.3-0.4,2c0.1,1,0.6,2,1.4,2.7c0.7,0.6,1.6,0.9,2.6,0.9
	c0.1,0,0.2,0,0.3,0c0.3,0,0.6-0.1,0.8-0.2c1.8-0.5,3-2.3,2.8-4.2c0-0.5-0.2-0.9-0.4-1.4c1.1-2.6,1.9-6.6,2.5-11.4
	c1.7,1.3,3.3,2.5,4.8,3.5c3.7,2.4,6.4,3.6,8.3,3.6c0.8,0,1.5-0.2,2-0.7c1.6-1.6,0.6-4.9-2.9-10.3c-1-1.5-2.2-3.1-3.5-4.8
	c4.8-0.6,8.8-1.5,11.4-2.5c0.5,0.3,1.1,0.4,1.7,0.4c0.1,0,0.2,0,0.4,0c0.3,0,0.6-0.1,0.8-0.2c1.8-0.5,3-2.3,2.8-4.2
	C63.9,31,63.7,30.4,63.4,29.8z M27.5,43c-0.1-1.3-0.2-2.7-0.3-4.1c0.6,0,1.3,0,1.9,0.1c0.5,0.5,0.9,0.9,1.4,1.3
	C29.5,41.2,28.5,42.1,27.5,43z M17.9,39c-0.2,0-0.3,0-0.5-0.1c-0.3-0.1-0.6-0.3-0.8-0.5C16.2,38,16,37.5,16,37.1c0,0,0-0.1,0-0.1
	c0-1.1,0.9-1.9,2-1.9c0.7,0,1.3,0.3,1.7,0.9c0,0,0,0.1,0.1,0.1c0.2,0.3,0.3,0.6,0.3,1c0,0.1,0,0.3,0,0.4c-0.1,0.8-0.8,1.4-1.6,1.6
	C18.2,39,18,39,17.9,39z M22,36.6C22,36.6,22,36.6,22,36.6c0-0.1,0-0.2,0-0.2c0-0.1,0-0.1,0-0.2c0-0.1,0-0.2-0.1-0.3
	c0,0,0-0.1,0-0.1c0,0,0-0.1,0-0.1c0.6-0.7,1.3-1.5,1.9-2.2c0.4,0.5,0.9,0.9,1.3,1.4c0,0.6,0,1.3,0.1,1.9C24,36.8,23,36.7,22,36.6z
	 M37,32c0,0.7,0,1.4,0,2.1c-0.5,0.5-1,1-1.5,1.5c-0.5,0.5-1,1-1.5,1.5c-0.7,0-1.4,0-2.1,0c-0.7,0-1.4,0-2.1,0c-0.5-0.5-1-1-1.5-1.4
	c-0.5-0.5-1-1-1.4-1.5c0-0.7,0-1.4,0-2.1c0-0.7,0-1.4,0-2.1c0.5-0.5,1-1,1.5-1.5c0.5-0.5,1-1,1.5-1.5c0.7,0,1.4,0,2.1,0
	c0.7,0,1.4,0,2.1,0c0.5,0.5,1,1,1.5,1.4c0.5,0.5,1,1,1.4,1.5C37,30.6,37,31.3,37,32z M34.9,22.4c0.1,0.1,0.2,0.1,0.3,0.2
	c0,0,0.1,0,0.1,0.1c0,0,0.1,0,0.1,0c0,0,0.1,0,0.1,0c0.1,0.1,0.3,0.1,0.4,0.1c0,0,0.1,0,0.2,0c0.1,0,0.1,0,0.2,0c0.1,0,0.2,0,0.3,0
	c0,0,0.1,0,0.1,0c0,0.7,0.1,1.4,0.1,2.1c-0.6,0-1.3,0-1.9-0.1c-0.5-0.5-0.9-0.9-1.4-1.3C34,23.3,34.4,22.8,34.9,22.4z M29.1,25
	c-0.6,0-1.3,0-1.9,0.1c0.1-1.4,0.2-2.8,0.3-4.1c1,0.9,2,1.8,3.1,2.7C30.1,24.1,29.6,24.6,29.1,25z M25,29.1
	c-0.4,0.5-0.9,0.9-1.3,1.4c-0.9-1-1.8-2.1-2.7-3.1c1.3-0.1,2.7-0.2,4.1-0.3C25.1,27.8,25,28.5,25,29.1z M34.9,39
	c0.7,0,1.3,0,1.9-0.1c-0.1,1.4-0.2,2.8-0.3,4.1c-1-0.9-2-1.8-3.1-2.7C33.9,39.9,34.4,39.4,34.9,39z M39,34.9
	c0.4-0.5,0.9-0.9,1.3-1.4c0.9,1,1.8,2.1,2.7,3.1c-1.3,0.1-2.7,0.2-4.1,0.3C38.9,36.2,39,35.5,39,34.9z M39,29.1c0-0.6,0-1.3-0.1-1.9
	c1.4,0.1,2.7,0.2,4.1,0.3c-0.9,1-1.8,2-2.7,3.1C39.9,30.1,39.4,29.6,39,29.1z M51.8,12.2c0.6,0.6-0.3,4.8-7.3,13.4
	c-1.8-0.2-3.7-0.3-5.7-0.4c0-0.9-0.1-1.7-0.2-2.6c1.4-0.6,2.3-2,2.3-3.6c0-0.2,0-0.4-0.1-0.6c0-0.1,0-0.1,0-0.2
	c0-0.1-0.1-0.3-0.1-0.4c0,0,0-0.1,0-0.1C48.4,11.9,51.4,11.8,51.8,12.2z M38.7,17.9c0.2,0.3,0.3,0.7,0.3,1.1c0,0.9-0.7,1.8-1.6,2
	c-0.1,0-0.3,0-0.4,0c-0.5,0-1-0.2-1.4-0.6S35,19.5,35,19c0-1.1,0.9-2,2-2C37.7,17,38.3,17.3,38.7,17.9z M32,4
	c0.6,0,2.5,2.1,3.9,11.2c-0.1,0-0.2,0.1-0.3,0.1c-0.1,0-0.2,0.1-0.2,0.1c-0.2,0.1-0.3,0.2-0.5,0.3c0,0-0.1,0-0.1,0.1
	c-0.2,0.1-0.4,0.3-0.5,0.4c0,0-0.1,0.1-0.1,0.1c-0.1,0.1-0.2,0.3-0.3,0.4c0,0.1-0.1,0.1-0.1,0.2c-0.1,0.1-0.2,0.3-0.2,0.4
	c0,0.1-0.1,0.2-0.1,0.2c-0.1,0.2-0.1,0.3-0.1,0.5c0,0.1,0,0.1-0.1,0.2c0,0.2-0.1,0.5-0.1,0.7c0,0.7,0.2,1.4,0.5,2
	c-0.5,0.5-1,0.9-1.5,1.4c-1.5-1.3-2.9-2.6-4.3-3.7C28.7,8.9,30.8,4,32,4z M15.3,20c-3.5-5.4-3.5-7.4-3.1-7.7
	c0.1-0.1,0.3-0.1,0.6-0.1c1,0,3.1,0.6,7.2,3.3c1.8,1.2,3.7,2.6,5.6,4.2c-0.2,1.9-0.3,3.9-0.4,5.7c-1.8,0.1-3.8,0.2-5.7,0.4
	C17.9,23.6,16.5,21.7,15.3,20z M4,32c0-1.2,4.9-3.3,14.6-4.3c1.2,1.4,2.4,2.9,3.7,4.3c-0.6,0.7-1.2,1.3-1.7,2c-0.7-0.6-1.6-1-2.6-1
	c-0.2,0-0.5,0-0.7,0.1c-0.1,0-0.1,0-0.2,0.1c-0.2,0-0.3,0.1-0.5,0.1c-0.1,0-0.2,0.1-0.2,0.1c-0.1,0.1-0.3,0.1-0.4,0.2
	c-0.1,0-0.1,0.1-0.2,0.1c-0.1,0.1-0.3,0.2-0.4,0.3c-0.1,0-0.1,0.1-0.2,0.1c-0.2,0.2-0.3,0.3-0.5,0.5c0,0,0,0,0,0.1
	c-0.1,0.2-0.2,0.3-0.3,0.5c0,0.1-0.1,0.1-0.1,0.2c0,0.1-0.1,0.2-0.1,0.3C5.9,34.4,4,32.6,4,32z M12.2,51.8
	c-0.4-0.4-0.3-3.3,5.3-10.8c0.1,0,0.1,0,0.2,0c0.1,0,0.2,0,0.3,0c0,0,0.1,0,0.1,0c0,0,0.1,0,0.1,0c0.2,0,0.4,0,0.6-0.1
	c1.3-0.3,2.3-1.1,2.8-2.3c1.2,0.1,2.3,0.2,3.5,0.2c0.1,1.9,0.2,3.8,0.4,5.7C17,51.5,12.8,52.4,12.2,51.8z M32.6,61.9
	c-0.1,0-0.2,0.1-0.4,0.1c-0.5,0-1.1-0.1-1.5-0.5c-0.4-0.4-0.7-0.8-0.7-1.4c0-0.5,0.1-0.9,0.3-1.3c0.3-0.5,0.9-0.8,1.5-0.9
	c0.1,0,0.2,0,0.3,0c0.1,0,0.1,0,0.2,0c0.1,0,0.2,0,0.3,0.1c0.1,0,0.1,0,0.2,0.1c0.1,0,0.2,0.1,0.3,0.2c0,0,0.1,0.1,0.1,0.1
	c0.1,0.1,0.3,0.2,0.4,0.4c0,0,0,0.1,0.1,0.1c0.2,0.2,0.3,0.6,0.3,0.9c0,0,0,0,0,0C34.1,60.8,33.5,61.6,32.6,61.9z M34.1,56.6
	C34.1,56.6,34.1,56.6,34.1,56.6c-0.4-0.2-0.7-0.4-1.1-0.5c0,0-0.1,0-0.1,0c-0.1,0-0.3-0.1-0.4-0.1c-0.1,0-0.1,0-0.2,0
	c-0.2,0-0.4,0-0.6,0c-0.3,0-0.6,0.1-0.9,0.2c-0.1,0-0.2,0.1-0.3,0.1c-0.2,0.1-0.4,0.1-0.5,0.3c0,0,0,0,0,0
	c-0.9-2.7-1.7-6.6-2.2-11.2c1.4-1.2,2.9-2.4,4.3-3.7c1.5,1.3,2.9,2.6,4.3,3.7C35.8,50,35.1,53.9,34.1,56.6z M48.7,44
	c3.5,5.4,3.5,7.4,3.1,7.7s-2.4,0.4-7.7-3.1c-1.8-1.2-3.7-2.6-5.6-4.1c0.2-1.8,0.3-3.7,0.4-5.7c2-0.1,3.9-0.2,5.7-0.4
	C46.1,40.4,47.5,42.3,48.7,44z M45.4,36.3c-1.2-1.4-2.4-2.9-3.7-4.3c1.3-1.4,2.5-2.9,3.7-4.3c4.7,0.5,8.6,1.3,11.2,2.2
	c-0.1,0.1-0.1,0.2-0.2,0.3c0,0.1-0.1,0.2-0.1,0.2c-0.1,0.1-0.1,0.3-0.1,0.4c0,0.1-0.1,0.2-0.1,0.2c0,0.1-0.1,0.3-0.1,0.4
	c0,0.1,0,0.1,0,0.2c0,0.2,0,0.4,0,0.7c0,0.3,0.1,0.6,0.2,0.8c0,0.1,0.1,0.2,0.1,0.3c0.1,0.2,0.1,0.3,0.2,0.5c0,0,0,0.1,0.1,0.2
	C53.9,35.1,50,35.8,45.4,36.3z M60.6,33.9c-0.1,0-0.2,0.1-0.4,0.1c-0.5,0-0.9-0.1-1.3-0.3c-0.1-0.1-0.1-0.1-0.2-0.2
	c-0.1-0.1-0.1-0.1-0.2-0.2c0,0-0.1-0.1-0.1-0.1c-0.1-0.1-0.1-0.1-0.1-0.2c0,0-0.1-0.1-0.1-0.1c0-0.1-0.1-0.2-0.1-0.2
	c0,0,0-0.1,0-0.1c0-0.1-0.1-0.3-0.1-0.4c0-0.5,0.1-0.9,0.3-1.3c0.2-0.2,0.4-0.4,0.6-0.6c0.3-0.2,0.6-0.3,0.9-0.3c0.1,0,0.1,0,0.2,0
	c0.6,0,1.2,0.3,1.6,0.8c0,0,0,0.1,0.1,0.1c0.2,0.2,0.3,0.6,0.3,0.9c0,0,0,0,0,0C62.1,32.8,61.5,33.6,60.6,33.9z"/></svg>