<svg xmlns="http://www.w3.org/2000/svg" enable-background="new 0 0 64 64" viewBox="0 0 64 64"><path d="M60.3,22.2c-2.9-8.3-9.2-14.9-17.4-18.1c-8.2-3.2-17.3-2.7-25.1,1.5C17,6,16.3,6.4,15.5,6.9c-5.2,3.4-9.2,8.3-11.5,14.1
		c-0.3,0.8-0.6,1.7-0.9,2.5c-1.7,6-1.6,12.3,0.5,18.2c2.9,8.3,9.2,14.9,17.4,18.1C24.6,61.3,28.3,62,32,62c4.9,0,9.8-1.2,14.2-3.6
		c0.8-0.4,1.5-0.9,2.3-1.4c5.2-3.4,9.2-8.3,11.5-14.1c0.3-0.8,0.6-1.7,0.9-2.5C62.5,34.4,62.4,28.1,60.3,22.2z M56.7,45.1
		c-0.3,0.5-0.5,1-0.8,1.4c-0.2,0.3-0.3,0.5-0.5,0.8c-0.3,0.4-0.5,0.8-0.8,1.2c-0.2,0.3-0.4,0.5-0.6,0.8c-0.3,0.4-0.6,0.7-0.9,1.1
		c-0.2,0.3-0.5,0.5-0.7,0.8c-0.3,0.3-0.6,0.7-0.9,1c-0.3,0.2-0.5,0.5-0.8,0.7c-0.3,0.3-0.7,0.6-1,0.9c-0.3,0.2-0.6,0.4-0.8,0.7
		c-0.4,0.3-0.7,0.5-1.1,0.8c-0.3,0.2-0.6,0.4-0.9,0.6c-0.2,0.1-0.4,0.2-0.6,0.3c-1.7-5.6-1.5-11.7,0.4-17.2l11,4.3
		c-0.2,0.4-0.4,0.9-0.6,1.3C57,44.6,56.8,44.9,56.7,45.1z M58.8,24c0.1,0.2,0.1,0.4,0.2,0.6c0.1,0.4,0.2,0.7,0.3,1.1
		c0.1,0.4,0.2,0.9,0.3,1.3c0.1,0.4,0.1,0.7,0.2,1.1c0.1,0.4,0.1,0.9,0.1,1.3c0,0.4,0.1,0.7,0.1,1.1c0,0.4,0,0.9,0,1.3
		c0,0.4,0,0.7,0,1.1c0,0.5-0.1,0.9-0.1,1.4c0,0.3,0,0.7-0.1,1c-0.1,0.5-0.1,0.9-0.2,1.4c-0.1,0.3-0.1,0.6-0.2,1
		c-0.1,0.5-0.2,1-0.4,1.5c-0.1,0.3-0.1,0.5-0.2,0.8c-0.1,0.5-0.3,0.9-0.5,1.3l-11-4.3C49.8,31.5,53.7,27,58.8,24z M58.2,22.1
		c-5.6,3.2-10,8.2-12.6,14.1l-12.3-4.8l9.8-25.1C50.1,9.3,55.5,15,58.2,22.1z M32,4c3.1,0,6.2,0.5,9.2,1.6l-9.8,25.1l-12.3-4.8
		c2.2-6.1,2.3-12.8,0.3-18.9C23.4,5,27.7,4,32,4z M5.2,40c-0.1-0.2-0.1-0.4-0.2-0.6c-0.1-0.4-0.2-0.7-0.3-1.1
		c-0.1-0.4-0.2-0.9-0.3-1.3c-0.1-0.4-0.1-0.7-0.2-1.1c-0.1-0.4-0.1-0.9-0.1-1.3c0-0.4-0.1-0.7-0.1-1.1c0-0.4,0-0.9,0-1.3
		c0-0.4,0-0.7,0-1.1c0-0.5,0.1-0.9,0.1-1.4c0-0.3,0-0.7,0.1-1c0.1-0.5,0.1-0.9,0.2-1.4c0.1-0.3,0.1-0.6,0.2-1c0.1-0.5,0.2-1,0.4-1.5
		c0.1-0.3,0.1-0.5,0.2-0.8c0.1-0.5,0.3-0.9,0.5-1.3l11,4.3C14.2,32.5,10.3,37,5.2,40z M6.3,20.9c0.2-0.4,0.4-0.9,0.6-1.3
		c0.1-0.2,0.3-0.5,0.4-0.7c0.3-0.5,0.5-1,0.8-1.4c0.2-0.3,0.3-0.5,0.5-0.8c0.3-0.4,0.5-0.8,0.8-1.2c0.2-0.3,0.4-0.5,0.6-0.8
		c0.3-0.4,0.6-0.7,0.9-1.1c0.2-0.3,0.5-0.5,0.7-0.8c0.3-0.3,0.6-0.7,0.9-1c0.3-0.2,0.5-0.5,0.8-0.7c0.3-0.3,0.7-0.6,1-0.9
		c0.3-0.2,0.6-0.4,0.8-0.7c0.4-0.3,0.7-0.5,1.1-0.8c0.3-0.2,0.6-0.4,0.9-0.6c0.2-0.1,0.4-0.2,0.6-0.3c1.7,5.6,1.5,11.7-0.4,17.2
		L6.3,20.9z M5.8,41.9c5.6-3.2,10-8.2,12.6-14.1l12.3,4.8l-9.8,25.1C13.9,54.7,8.5,49,5.8,41.9z M22.7,58.4l9.8-25.1l12.3,4.8
		c-2.2,6.1-2.3,12.8-0.3,19C37.7,60.4,29.9,60.9,22.7,58.4z"/><path d="M25.8 18.5c.2.1.4.1.6.1.2 0 .4 0 .7-.1.4-.2.7-.5.9-.9.3-.8-.1-1.8-.9-2.1-.8-.3-1.8.1-2.1.9-.2.4-.1.8 0 1.2S25.4 18.3 25.8 18.5zM26 16.8c0-.1.1-.2.2-.2.1 0 .2 0 .3 0 .1 0 .2.1.2.2 0 .1 0 .2 0 .3-.1.2-.3.3-.5.2C26.1 17.2 26 17 26 16.8zM36.2 9c.2.1.4.1.6.1.7 0 1.3-.4 1.5-1 .2-.4.1-.8 0-1.2S37.8 6.1 37.4 6c-.8-.3-1.8.1-2.1.9-.2.4-.1.8 0 1.2C35.5 8.5 35.8 8.9 36.2 9zM37 7.1c.1 0 .2.1.2.2 0 .1 0 .2 0 .3-.1.2-.3.3-.5.2-.1 0-.2-.1-.2-.2 0-.1 0-.2 0-.3C36.6 7.2 36.8 7.1 37 7.1zM24.3 39.5c.2.1.4.1.6.1.7 0 1.3-.4 1.5-1 0 0 0 0 0 0 .2-.4.1-.8 0-1.2-.2-.4-.5-.7-.9-.9-.4-.2-.8-.1-1.2 0s-.7.5-.9.9C23.1 38.3 23.5 39.2 24.3 39.5zM24.9 37.7c0 0 .1 0 .1 0 .2.1.3.3.2.5 0 0 0 0 0 0l-.7-.3C24.6 37.7 24.8 37.7 24.9 37.7zM25.3 38.2c0 .1-.1.2-.2.2-.1 0-.2 0-.3 0-.1 0-.2-.1-.2-.2s0-.2 0-.3L25.3 38.2zM20.2 49.8c-.2-.4-.5-.7-.9-.9-.8-.3-1.8.1-2.1.9-.2.4-.1.8 0 1.2.2.4.5.7.9.9.2.1.4.1.6.1.7 0 1.3-.4 1.5-1C20.4 50.7 20.4 50.2 20.2 49.8zM18.8 50.8c-.1 0-.2 0-.3 0-.1 0-.2-.1-.2-.2 0-.1 0-.2 0-.3.1-.2.3-.3.5-.2.1 0 .2.1.2.2 0 .1 0 .2 0 .3C19 50.7 18.9 50.8 18.8 50.8zM50.6 45c-.4-.2-.8-.2-1.2 0-.4.2-.7.5-.9.9-.3.8.1 1.8.9 2.1.2.1.4.1.6.1.2 0 .4 0 .7-.1.4-.2.7-.5.9-.9 0 0 0 0 0 0C51.9 46.2 51.5 45.3 50.6 45zM50.2 46.8c-.1 0-.2 0-.3 0-.2-.1-.3-.3-.2-.5l.7.3C50.3 46.7 50.3 46.8 50.2 46.8zM50.4 46.6C50.4 46.6 50.4 46.6 50.4 46.6l-.7-.3c0-.1.1-.2.2-.2 0 0 .1 0 .1 0 0 0 .1 0 .1 0C50.4 46.2 50.4 46.4 50.4 46.6zM8.6 31.3c-.8-.3-1.8.1-2.1.9-.2.4-.1.8 0 1.2s.5.7.9.9c.2.1.4.1.6.1.2 0 .4 0 .7-.1.4-.2.7-.5.9-.9C9.9 32.5 9.4 31.6 8.6 31.3zM7.9 33.1c-.2-.1-.3-.3-.2-.5 0-.1.1-.2.2-.2.1 0 .2 0 .3 0 .1 0 .2.1.2.2 0 .1 0 .2 0 .3C8.3 33.1 8.1 33.2 7.9 33.1zM47.8 17.6c.2.1.4.1.6.1.7 0 1.3-.4 1.5-1 0 0 0 0 0 0 .2-.4.1-.8 0-1.2-.2-.4-.5-.7-.9-.9-.4-.2-.8-.1-1.2 0-.4.2-.7.5-.9.9C46.5 16.3 47 17.3 47.8 17.6zM48.4 15.7c0 0 .1 0 .1 0 .2.1.3.3.2.5 0 0 0 0 0 0L48 15.9C48.1 15.8 48.2 15.7 48.4 15.7zM48.7 16.2c0 .1-.1.2-.2.2-.1 0-.2 0-.3 0-.1 0-.2-.1-.2-.2s0-.2 0-.3L48.7 16.2zM39.2 25.6c-.8-.3-1.8.1-2.1.9-.2.4-.1.8 0 1.2.2.4.5.7.9.9.2.1.4.1.6.1.7 0 1.3-.4 1.5-1 .2-.4.1-.8 0-1.2C40 26.1 39.6 25.8 39.2 25.6zM38.5 27.5c-.1 0-.2-.1-.2-.2 0-.1 0-.2 0-.3.1-.1.2-.2.3-.2 0 0 .1 0 .1 0 .1 0 .2.1.2.2 0 .1 0 .2 0 .3C38.9 27.5 38.7 27.6 38.5 27.5zM15.7 12.9c-.2-.4-.5-.7-.9-.9-.4-.2-.8-.1-1.2 0-.4.2-.7.5-.9.9-.3.8.1 1.8.9 2.1.2.1.4.1.6.1.7 0 1.3-.4 1.5-1 0 0 0 0 0 0C15.9 13.7 15.8 13.3 15.7 12.9zM14.3 13.9c-.1 0-.2 0-.3 0-.1 0-.2-.1-.2-.2 0-.1 0-.2 0-.3l.7.3C14.5 13.8 14.4 13.8 14.3 13.9zM14.5 13.7C14.5 13.7 14.5 13.7 14.5 13.7l-.7-.3c.1-.1.2-.2.3-.2 0 0 .1 0 .1 0C14.5 13.3 14.6 13.5 14.5 13.7zM56.4 37.2c.2.1.4.1.6.1.2 0 .4 0 .7-.1.4-.2.7-.5.9-.9.3-.8-.1-1.8-.9-2.1-.8-.3-1.8.1-2.1.9C55.1 35.9 55.5 36.9 56.4 37.2zM56.6 35.5c0-.1.1-.2.2-.2.1 0 .2 0 .3 0 .2.1.3.3.2.5C57.2 36 57 36.1 56.8 36 56.6 35.9 56.5 35.7 56.6 35.5zM34.5 48.1c-.8-.3-1.8.1-2.1.9-.2.4-.1.8 0 1.2s.5.7.9.9c.2.1.4.1.6.1.2 0 .4 0 .7-.1.4-.2.7-.5.9-.9C35.7 49.4 35.3 48.5 34.5 48.1zM33.8 50c-.2-.1-.3-.3-.2-.5 0-.1.1-.2.2-.2.1 0 .2 0 .3 0 .1 0 .2.1.2.2 0 .1 0 .2 0 .3C34.2 50 34 50.1 33.8 50z"/></svg>