<svg xmlns="http://www.w3.org/2000/svg" enable-background="new 0 0 64 64" viewBox="0 0 64 64"><path d="M61,10c0.6,0,1-0.4,1-1V6c0-0.6-0.4-1-1-1H35V3c0-0.6-0.4-1-1-1h-4c-0.6,0-1,0.4-1,1v2H3C2.4,5,2,5.4,2,6v3
		c0,0.6,0.4,1,1,1h2v36H3c-0.6,0-1,0.4-1,1v3c0,0.6,0.4,1,1,1h13.7L14,60.7c-0.1,0.3,0,0.6,0.2,0.9c0.2,0.2,0.5,0.4,0.8,0.4h4
		c0.5,0,0.8-0.3,1-0.7L22.8,51H29v10c0,0.6,0.4,1,1,1h4c0.6,0,1-0.4,1-1V51h6.2L44,61.3c0.1,0.4,0.5,0.7,1,0.7h4
		c0.3,0,0.6-0.1,0.8-0.4C50,61.4,50,61,50,60.7L47.3,51H61c0.6,0,1-0.4,1-1v-3c0-0.6-0.4-1-1-1h-2V10H61z M31,4h2v1h-2V4z M4,7h26h4
		h26v1h-2H6H4V7z M18.2,60h-1.9l2.5-9h1.9L18.2,60z M33,60h-2v-9h2V60z M47.7,60h-1.9l-2.5-9h1.9L47.7,60z M60,49H46h-4h-8h-4h-8h-4
		H4v-1h2h38h11h3h2V49z M54,46h-8.5l1.2-3H54V46z M57,46h-1v-4c0-0.6-0.4-1-1-1h-9c-0.4,0-0.8,0.2-0.9,0.6L43.3,46H7V10h50V46z"/><path d="M10 16h43c.6 0 1-.4 1-1s-.4-1-1-1H10c-.6 0-1 .4-1 1S9.4 16 10 16zM10 20h40c.6 0 1-.4 1-1s-.4-1-1-1H10c-.6 0-1 .4-1 1S9.4 20 10 20zM10 24h42c.6 0 1-.4 1-1s-.4-1-1-1H10c-.6 0-1 .4-1 1S9.4 24 10 24zM10 28h37c.6 0 1-.4 1-1s-.4-1-1-1H10c-.6 0-1 .4-1 1S9.4 28 10 28zM10 32h20c.6 0 1-.4 1-1s-.4-1-1-1H10c-.6 0-1 .4-1 1S9.4 32 10 32z"/></svg>