<svg xmlns="http://www.w3.org/2000/svg" enable-background="new 0 0 64 64" viewBox="0 0 64 64"><path d="M62,6.8c0-0.4-0.2-0.7-0.6-0.9C51.7,1,41.8,0.7,32,5.1C22.2,0.7,12.3,1,2.6,5.9C2.2,6.1,2,6.4,2,6.8v50.4c0,0,0,0.1,0,0.1
		c0,0,0,0,0,0.1c0,0.1,0.1,0.2,0.1,0.3c0,0,0,0,0,0l2.5,3.8C5,62,5.5,62.1,5.9,61.9c9.1-4.1,15.5-4.4,24.4-1.1
		c0.4,0.2,0.9,0.3,1.3,0.5c0.2,0.1,0.5,0.1,0.8,0c0.4-0.2,0.9-0.3,1.3-0.5c8.9-3.3,15.3-3,24.4,1.1c0.1,0.1,0.3,0.1,0.4,0.1
		c0.3,0,0.6-0.2,0.8-0.4l2.5-3.8c0,0,0,0,0,0c0.1-0.1,0.1-0.2,0.1-0.3c0,0,0,0,0-0.1c0,0,0-0.1,0-0.1V6.8z M60,7.4v48.3
		c-0.1,0-0.1,0-0.2-0.1c-0.2-0.1-0.5-0.2-0.7-0.3c-0.3-0.1-0.7-0.3-1-0.4c-0.3-0.1-0.5-0.2-0.8-0.3c-0.3-0.1-0.7-0.2-1-0.3
		c-0.3-0.1-0.5-0.1-0.8-0.2c-0.3-0.1-0.6-0.2-1-0.3c-0.3-0.1-0.5-0.1-0.8-0.2c-0.3-0.1-0.6-0.1-1-0.2c-0.3-0.1-0.5-0.1-0.8-0.1
		c-0.3-0.1-0.6-0.1-0.9-0.2c-0.3,0-0.5-0.1-0.8-0.1c-0.3,0-0.6-0.1-0.9-0.1c-0.3,0-0.5-0.1-0.8-0.1c-0.3,0-0.6,0-0.9-0.1
		c-0.3,0-0.5,0-0.8,0c-0.3,0-0.6,0-0.9,0c-0.3,0-0.5,0-0.8,0c-0.3,0-0.6,0-1,0c-0.3,0-0.5,0-0.8,0c-0.3,0-0.6,0.1-1,0.1
		c-0.3,0-0.5,0-0.8,0.1c-0.3,0-0.6,0.1-1,0.1c-0.3,0-0.5,0.1-0.8,0.1c-0.3,0.1-0.7,0.1-1,0.2c-0.2,0-0.5,0.1-0.7,0.1
		c-0.4,0.1-0.7,0.2-1.1,0.3c-0.2,0.1-0.5,0.1-0.7,0.2c-0.4,0.1-0.8,0.2-1.2,0.3c-0.2,0.1-0.4,0.1-0.6,0.2c-0.6,0.2-1.1,0.4-1.7,0.6
		V6.8C42,2.9,51,3.1,60,7.4z M4,7.4c9-4.3,18-4.5,27-0.6v48.4c-0.6-0.2-1.1-0.4-1.7-0.6c-0.2-0.1-0.4-0.1-0.6-0.2
		c-0.4-0.1-0.8-0.2-1.1-0.3c-0.2-0.1-0.5-0.1-0.7-0.2c-0.3-0.1-0.7-0.2-1-0.2c-0.3-0.1-0.5-0.1-0.8-0.2c-0.3-0.1-0.6-0.1-1-0.2
		c-0.3,0-0.5-0.1-0.8-0.1c-0.3,0-0.6-0.1-0.9-0.1c-0.3,0-0.5-0.1-0.8-0.1c-0.3,0-0.6-0.1-0.9-0.1c-0.3,0-0.5,0-0.8,0
		c-0.3,0-0.6,0-0.9,0c-0.3,0-0.5,0-0.8,0c-0.3,0-0.6,0-0.9,0c-0.3,0-0.6,0-0.8,0c-0.3,0-0.6,0-0.9,0.1c-0.3,0-0.6,0-0.8,0.1
		c-0.3,0-0.6,0.1-0.9,0.1c-0.3,0-0.5,0.1-0.8,0.1c-0.3,0-0.6,0.1-0.9,0.2c-0.3,0-0.5,0.1-0.8,0.2c-0.3,0.1-0.6,0.1-0.9,0.2
		c-0.3,0.1-0.5,0.1-0.8,0.2c-0.3,0.1-0.6,0.2-0.9,0.3c-0.3,0.1-0.5,0.1-0.8,0.2c-0.3,0.1-0.6,0.2-1,0.3c-0.3,0.1-0.5,0.2-0.8,0.3
		c-0.3,0.1-0.7,0.2-1,0.4c-0.2,0.1-0.5,0.2-0.7,0.3c-0.1,0-0.1,0-0.2,0.1V7.4z M58.1,59.7c-9.1-4-16-4.2-25.1-0.8
		c-0.3,0.1-0.6,0.2-1,0.4c-0.3-0.1-0.7-0.3-1-0.4c-9.1-3.4-16-3.2-25.1,0.8l-1.4-2.1c0.1,0,0.2-0.1,0.3-0.1c0.3-0.1,0.5-0.2,0.8-0.3
		c0.3-0.1,0.6-0.2,0.9-0.3c0.3-0.1,0.5-0.2,0.8-0.3c0.3-0.1,0.6-0.2,0.9-0.3c0.3-0.1,0.5-0.2,0.8-0.2c0.3-0.1,0.6-0.2,0.9-0.2
		c0.3-0.1,0.5-0.1,0.8-0.2c0.3-0.1,0.6-0.1,0.9-0.2c0.3-0.1,0.5-0.1,0.8-0.1c0.3-0.1,0.6-0.1,0.9-0.1c0.3,0,0.5-0.1,0.8-0.1
		c0.3,0,0.6-0.1,0.9-0.1c0.3,0,0.5-0.1,0.8-0.1c0.3,0,0.6,0,0.9-0.1c0.3,0,0.5,0,0.8,0c0.3,0,0.6,0,0.9,0c0.3,0,0.5,0,0.8,0
		c0.3,0,0.6,0,0.9,0c0.3,0,0.5,0,0.8,0c0.3,0,0.6,0.1,0.9,0.1c0.2,0,0.5,0,0.7,0.1c0.3,0,0.6,0.1,0.9,0.1c0.2,0,0.5,0.1,0.7,0.1
		c0.3,0.1,0.6,0.1,0.9,0.2c0.2,0,0.5,0.1,0.7,0.1c0.3,0.1,0.7,0.2,1,0.2c0.2,0.1,0.4,0.1,0.7,0.2c0.4,0.1,0.7,0.2,1.1,0.3
		c0.2,0.1,0.4,0.1,0.6,0.2c0.5,0.2,1.1,0.4,1.6,0.6c0.4,0.2,0.9,0.3,1.3,0.5c0.2,0.1,0.6,0.1,0.8,0c0.4-0.2,0.8-0.3,1.3-0.5
		c0.5-0.2,1.1-0.4,1.6-0.6c0.2-0.1,0.4-0.1,0.6-0.2c0.4-0.1,0.7-0.2,1.1-0.3c0.2-0.1,0.5-0.1,0.7-0.2c0.3-0.1,0.6-0.2,1-0.2
		c0.2-0.1,0.5-0.1,0.7-0.1c0.3-0.1,0.6-0.1,0.9-0.2c0.2,0,0.5-0.1,0.7-0.1c0.3,0,0.6-0.1,0.9-0.1c0.2,0,0.5-0.1,0.7-0.1
		c0.3,0,0.6-0.1,0.9-0.1c0.3,0,0.5,0,0.8,0c0.3,0,0.6,0,0.9,0c0.3,0,0.5,0,0.8,0c0.3,0,0.6,0,0.9,0c0.3,0,0.5,0,0.8,0
		c0.3,0,0.6,0,0.9,0.1c0.3,0,0.5,0,0.8,0.1c0.3,0,0.6,0.1,0.9,0.1c0.3,0,0.5,0.1,0.8,0.1c0.3,0,0.6,0.1,0.9,0.1
		c0.3,0,0.5,0.1,0.8,0.1c0.3,0.1,0.6,0.1,0.9,0.2c0.3,0.1,0.5,0.1,0.8,0.2c0.3,0.1,0.6,0.2,0.9,0.2c0.3,0.1,0.5,0.1,0.8,0.2
		c0.3,0.1,0.6,0.2,0.9,0.3c0.3,0.1,0.5,0.2,0.8,0.3c0.3,0.1,0.6,0.2,0.9,0.3c0.3,0.1,0.5,0.2,0.8,0.3c0.1,0,0.2,0.1,0.3,0.1
		L58.1,59.7z"/><path d="M8.4 12.8c6.1-2.2 12.2-2.2 18.2 0 .1 0 .2.1.3.1.4 0 .8-.3.9-.7.2-.5-.1-1.1-.6-1.3-6.5-2.3-13.1-2.3-19.6 0-.5.2-.8.8-.6 1.3C7.3 12.7 7.9 13 8.4 12.8zM8.4 17.8c6.1-2.2 12.2-2.2 18.2 0 .1 0 .2.1.3.1.4 0 .8-.3.9-.7.2-.5-.1-1.1-.6-1.3-6.5-2.3-13.1-2.3-19.6 0-.5.2-.8.8-.6 1.3C7.3 17.7 7.9 18 8.4 17.8zM8.4 22.9c6.1-2.2 12.2-2.2 18.2 0 .1 0 .2.1.3.1.4 0 .8-.3.9-.7.2-.5-.1-1.1-.6-1.3-6.5-2.3-13.1-2.3-19.6 0-.5.2-.8.8-.6 1.3C7.3 22.8 7.9 23 8.4 22.9zM8.4 27.9c6.1-2.2 12.2-2.2 18.2 0 .1 0 .2.1.3.1.4 0 .8-.3.9-.7.2-.5-.1-1.1-.6-1.3-6.5-2.3-13.1-2.3-19.6 0-.5.2-.8.8-.6 1.3C7.3 27.8 7.9 28.1 8.4 27.9zM8.4 39.2c6.1-2.2 12.2-2.2 18.2 0 .1 0 .2.1.3.1.4 0 .8-.3.9-.7.2-.5-.1-1.1-.6-1.3-6.5-2.3-13.1-2.3-19.6 0-.5.2-.8.8-.6 1.3C7.3 39.2 7.9 39.4 8.4 39.2zM8.4 44.3c6.1-2.2 12.2-2.2 18.2 0 .1 0 .2.1.3.1.4 0 .8-.3.9-.7.2-.5-.1-1.1-.6-1.3-6.5-2.3-13.1-2.3-19.6 0-.5.2-.8.8-.6 1.3C7.3 44.2 7.9 44.5 8.4 44.3zM8 49.4c.1 0 .2 0 .3-.1 3-1.1 6.1-1.6 9.1-1.6.6 0 1-.4 1-1s-.4-1-1-1c-3.3 0-6.5.6-9.8 1.7-.5.2-.8.8-.6 1.3C7.2 49.1 7.6 49.4 8 49.4zM37.4 12.8c6.1-2.2 12.2-2.2 18.2 0 .1 0 .2.1.3.1.4 0 .8-.3.9-.7.2-.5-.1-1.1-.6-1.3-6.5-2.3-13.1-2.3-19.6 0-.5.2-.8.8-.6 1.3C36.3 12.7 36.9 13 37.4 12.8zM37.4 17.8c6.1-2.2 12.2-2.2 18.2 0 .1 0 .2.1.3.1.4 0 .8-.3.9-.7.2-.5-.1-1.1-.6-1.3-6.5-2.3-13.1-2.3-19.6 0-.5.2-.8.8-.6 1.3C36.3 17.7 36.9 18 37.4 17.8zM37.4 22.9c6.1-2.2 12.2-2.2 18.2 0 .1 0 .2.1.3.1.4 0 .8-.3.9-.7.2-.5-.1-1.1-.6-1.3-6.5-2.3-13.1-2.3-19.6 0-.5.2-.8.8-.6 1.3C36.3 22.8 36.9 23 37.4 22.9zM37.4 34.2c6.1-2.2 12.2-2.2 18.2 0 .1 0 .2.1.3.1.4 0 .8-.3.9-.7.2-.5-.1-1.1-.6-1.3-6.5-2.3-13.1-2.3-19.6 0-.5.2-.8.8-.6 1.3C36.3 34.1 36.9 34.4 37.4 34.2zM37.4 39.2c6.1-2.2 12.2-2.2 18.2 0 .1 0 .2.1.3.1.4 0 .8-.3.9-.7.2-.5-.1-1.1-.6-1.3-6.5-2.3-13.1-2.3-19.6 0-.5.2-.8.8-.6 1.3C36.3 39.2 36.9 39.4 37.4 39.2zM56.3 42.4c-6.5-2.3-13.1-2.3-19.6 0-.5.2-.8.8-.6 1.3.2.5.8.8 1.3.6 6.1-2.2 12.2-2.2 18.2 0 .1 0 .2.1.3.1.4 0 .8-.3.9-.7C57.1 43.2 56.8 42.6 56.3 42.4z"/></svg>