<svg xmlns="http://www.w3.org/2000/svg" enable-background="new 0 0 64 64" viewBox="0 0 64 64"><path d="M53.3,2.8c0-0.3-0.1-0.5-0.3-0.7c-0.2-0.2-0.5-0.3-0.7-0.3c0,0,0,0,0,0l-41,0.4c-0.6,0-1,0.5-1,1.1l0.5,58
		c0,0.3,0.1,0.5,0.3,0.7c0.2,0.2,0.5,0.3,0.7,0.3c0,0,0,0,0,0l41-0.4c0.6,0,1-0.5,1-1.1L53.3,2.8z M12.8,60.1L12.3,4.2l38.9-0.3
		l0.5,55.9L12.8,60.1z"/><path d="M47.9 49.7c.7-1.1 1.1-2.4 1.1-3.8v0c0-1.9-.8-3.6-2.1-4.9-1.3-1.3-3.1-2-5-2-1.9 0-3.6.8-4.9 2.1s-2 3.1-2 5c0 1.1.3 2.2.8 3.2l-3.1 6.3c-.2.4-.1.9.2 1.2s.8.4 1.2.2l1.7-.9.3 1.9c.1.4.4.8.8.8.1 0 .1 0 .2 0 .4 0 .7-.2.9-.6l2.7-5.4C41 52.9 41.5 53 42 53c0 0 0 0 .1 0 .3 0 .6 0 .9-.1l2.7 5.2c.2.3.5.5.9.5.1 0 .1 0 .2 0 .4-.1.8-.4.8-.9l.3-1.9 1.7.9c.4.2.9.1 1.2-.2.3-.3.4-.8.2-1.2L47.9 49.7zM37.5 54.5l0-.2c0-.3-.3-.6-.5-.7-.1-.1-.3-.1-.4-.1-.2 0-.3 0-.5.1l-.2.1 1.3-2.6c.1.1.2.2.3.3.1.1.2.2.3.2.2.2.5.3.7.5.1 0 .1.1.1.1 0 0 0 0 0 0L37.5 54.5zM42 51c-.6 0-1.1-.1-1.7-.3-.3-.1-.5-.2-.8-.3-.7-.4-1.4-1-1.8-1.7C37.2 47.9 37 47 37 46c0-1.3.5-2.6 1.4-3.5s2.2-1.5 3.5-1.5c0 0 0 0 0 0 1.3 0 2.6.5 3.5 1.4 1 .9 1.5 2.2 1.5 3.5 0 1.1-.4 2.2-1.1 3.1-.7.9-1.6 1.5-2.7 1.8C42.8 50.9 42.4 51 42 51zM47.4 53.5c-.3-.1-.6-.1-.9 0S46 53.9 46 54.2l0 .2-1.1-2c.3-.1.6-.3.9-.5.1-.1.2-.1.2-.2.2-.1.3-.2.5-.3l1.1 2.2L47.4 53.5zM22 10h20c.6 0 1-.4 1-1s-.4-1-1-1H22c-.6 0-1 .4-1 1S21.4 10 22 10zM15 18h34c.6 0 1-.4 1-1s-.4-1-1-1H15c-.6 0-1 .4-1 1S14.4 18 15 18zM15 23h34c.6 0 1-.4 1-1s-.4-1-1-1H15c-.6 0-1 .4-1 1S14.4 23 15 23zM15 28h34c.6 0 1-.4 1-1s-.4-1-1-1H15c-.6 0-1 .4-1 1S14.4 28 15 28zM33 32c0-.6-.4-1-1-1H15c-.6 0-1 .4-1 1s.4 1 1 1h17C32.6 33 33 32.6 33 32z"/></svg>