<svg xmlns="http://www.w3.org/2000/svg" enable-background="new 0 0 64 64" viewBox="0 0 64 64"><path d="M57.8,5H6.3C3.9,5,2,6.9,2,9.3V36v4.7C2,43.1,3.9,45,6.3,45h17.2l-0.8,9h-2.1c-1.4,0-2.5,1.1-2.5,2.5s1.1,2.5,2.5,2.5h23
		c1.4,0,2.5-1.1,2.5-2.5S44.9,54,43.5,54h-2.1l-0.8-9h17.2c2.3,0,4.3-1.9,4.3-4.3V36V9.3C62,6.9,60.1,5,57.8,5z M44,56.5
		c0,0.3-0.2,0.5-0.5,0.5h-23c-0.3,0-0.5-0.2-0.5-0.5s0.2-0.5,0.5-0.5h3h17h3C43.8,56,44,56.2,44,56.5z M24.6,54l0.8-9h13.2l0.8,9
		H24.6z M6.3,7h51.5C59,7,60,8,60,9.3V35H4V9.3C4,8,5,7,6.3,7z M60,40.7c0,1.2-1,2.3-2.3,2.3H6.3C5,43,4,42,4,40.7V37h56V40.7z"/><circle cx="32" cy="40" r="2"/></svg>