<svg xmlns="http://www.w3.org/2000/svg" enable-background="new 0 0 64 64" viewBox="0 0 64 64"><path d="M53.5,28.3c0-6-2.2-11.7-6.3-16.2c0,0,0-0.1-0.1-0.1c-0.8-0.9-1.6-1.7-2.5-2.4c0,0-0.1,0-0.1-0.1c-2.3-1.9-4.9-3.3-7.7-4.2
	l1-2.3c0.2-0.5,0-1.1-0.5-1.3c-0.5-0.2-1.1,0-1.3,0.5l-1.2,2.6c-1.7-0.4-3.6-0.6-5.4-0.6c-0.6,0-1,0.4-1,1s0.4,1,1,1
	c1.6,0,3.1,0.2,4.6,0.5l-1.3,2.8c-1.1-0.2-2.2-0.3-3.3-0.3c-0.9,0-1.8,0.1-2.7,0.2c-1.2,0.2-2.4,0.5-3.5,0.8
	c-0.2,0.1-0.4,0.1-0.5,0.2c-4.4,1.6-8,4.8-10.2,9.2c-1.4,2.7-2.1,5.6-2.1,8.6c0,1,0.1,2,0.2,2.9c-0.1,0.2-0.1,0.4,0,0.6
	c0.8,4.5,3.2,8.5,6.7,11.3l-1.2,2.7c-0.8-0.6-1.7-1.3-2.4-2.1c-0.4-0.4-1-0.4-1.4,0c-0.4,0.4-0.4,1,0,1.4c0.9,1,1.9,1.8,3,2.6
	l-1.2,2.7c-0.2,0.5,0,1.1,0.5,1.3c0.1,0.1,0.3,0.1,0.4,0.1c0.4,0,0.7-0.2,0.9-0.6l1.1-2.4c3.6,2.2,7.7,3.4,12,3.5V57H17
	c-0.3,0-0.6,0.2-0.8,0.4l-2,3c-0.2,0.3-0.2,0.7,0,1c0.2,0.3,0.5,0.5,0.9,0.5h30c0.4,0,0.7-0.2,0.9-0.5c0.2-0.3,0.2-0.7,0-1l-2-3
	C43.6,57.2,43.3,57,43,57H31v-4.8C43.5,51.4,53.5,41,53.5,28.3z M42.5,59l0.7,1H16.9l0.7-1H42.5z M33.2,11.6
	c0.6,0.1,1.1,0.3,1.6,0.4c0.2,0.1,0.3,0.1,0.5,0.2c0.4,0.1,0.7,0.3,1,0.4c0.2,0.1,0.4,0.2,0.6,0.3c0.3,0.1,0.6,0.3,0.9,0.5
	c0.2,0.1,0.4,0.2,0.6,0.4c0.3,0.2,0.6,0.3,0.8,0.5c0.2,0.1,0.4,0.3,0.6,0.4c0.3,0.2,0.5,0.4,0.7,0.6c0.2,0.2,0.4,0.3,0.5,0.5
	c0.2,0.2,0.5,0.4,0.7,0.7c0.2,0.2,0.3,0.4,0.5,0.5c0.2,0.2,0.4,0.5,0.6,0.7c0.1,0.2,0.3,0.4,0.4,0.6c0.1,0.1,0.1,0.2,0.2,0.3
	C43,18.9,42.5,19,42,19c-1.7,0-3.3-1.1-3.8-2.8c-0.1-0.3-0.4-0.6-0.7-0.7c-0.3-0.1-0.7,0-0.9,0.2c-0.5,0.5-1.2,0.9-1.9,1.1
	C34.3,17,34,17.3,34,17.7C33.9,19,32.8,20,31.5,20c-0.7,0-1.3-0.3-1.8-0.8c-0.2-0.2-0.4-0.3-0.7-0.3c-0.2,0-0.5,0.1-0.7,0.3
	c-0.7,0.7-1.6,1.3-2.6,1.6c-0.4,0.1-0.6,0.4-0.7,0.8C24.7,23,23.4,24,22,24c-1.7,0-3-1.3-3-3c0-0.1,0-0.3,0-0.4
	c0.1-0.4-0.1-0.8-0.4-1c-0.2-0.1-0.4-0.2-0.6-0.2c-0.2,0-0.4,0-0.5,0.1c-0.8,0.5-1.9,0.6-2.7,0.2c0,0,0-0.1,0.1-0.1
	c0.1-0.2,0.2-0.3,0.3-0.5c0.1-0.2,0.2-0.3,0.3-0.5c0.1-0.1,0.2-0.3,0.3-0.4c0.1-0.2,0.2-0.3,0.4-0.5c0.1-0.1,0.2-0.3,0.3-0.4
	c0.1-0.2,0.3-0.3,0.4-0.5c0.1-0.1,0.2-0.3,0.4-0.4c0.1-0.1,0.3-0.3,0.4-0.4c0.1-0.1,0.3-0.2,0.4-0.4c0.1-0.1,0.3-0.3,0.5-0.4
	c0.1-0.1,0.3-0.2,0.4-0.3c0.2-0.1,0.3-0.2,0.5-0.4c0.1-0.1,0.3-0.2,0.4-0.3c0.2-0.1,0.3-0.2,0.5-0.3c0.1-0.1,0.3-0.2,0.4-0.3
	c0.2-0.1,0.4-0.2,0.5-0.3c0.2-0.1,0.3-0.2,0.5-0.2c0.2-0.1,0.4-0.2,0.6-0.3c0.2-0.1,0.3-0.1,0.5-0.2c0.2-0.1,0.4-0.2,0.6-0.2
	c0.2-0.1,0.3-0.1,0.5-0.2c0.2-0.1,0.4-0.1,0.6-0.2c0.2,0,0.3-0.1,0.5-0.1c0.2-0.1,0.4-0.1,0.6-0.2c0.2,0,0.3-0.1,0.5-0.1
	c0.2,0,0.5-0.1,0.7-0.1c0.2,0,0.3-0.1,0.5-0.1c0.3,0,0.5-0.1,0.8-0.1c0.1,0,0.3,0,0.4,0c0.4,0,0.8,0,1.2,0
	C30.8,11.3,32,11.4,33.2,11.6z M46.5,28.3c0,0.4,0,0.8-0.1,1.2c-0.4-1.7-2.8-3-5.9-3c-2.5,0-4.5,0.8-5.4,1.9
	c-0.7-0.6-1.6-0.9-2.6-0.9c-2.2,0-4,1.8-4,4c0,1.5,0.8,2.8,2.1,3.5c-0.1,0.3-0.1,0.7-0.1,1c0,2.5,1.5,4.4,3.4,4.5
	c0.1,0.1,0.2,0.3,0.3,0.4c-0.4,0.6-0.6,1.4-0.6,2.1c0,0.6,0.1,1.1,0.4,1.7c-0.9,0.2-1.8,0.4-2.8,0.5c0-0.1,0-0.3,0-0.4
	c0-2.9-1.9-5.4-4.6-6.1c-0.6-1.5-2.5-2.5-4.8-2.5c-0.5,0-1,0-1.4,0.1c-0.1-0.2-0.3-0.4-0.4-0.6c0.8-1,1.3-2.3,1.3-3.7
	c0-2.9-2-5.2-4.4-5.2c-1.9,0-3.5,1.4-4.2,3.4c-0.1-0.7-0.1-1.4-0.1-2.1c0-2.3,0.5-4.6,1.4-6.7c1,0.5,2.1,0.6,3.2,0.4
	c0.4,2.3,2.5,4.1,4.9,4.1c2.2,0,4.1-1.4,4.8-3.5c0.8-0.3,1.6-0.7,2.2-1.3c0.7,0.5,1.6,0.8,2.5,0.8c2.1,0,3.9-1.4,4.4-3.4
	c0.4-0.1,0.7-0.3,1-0.5c1.1,1.8,3,2.9,5.1,2.9c0.9,0,1.8-0.2,2.6-0.6C45.8,22.8,46.5,25.5,46.5,28.3z M45.9,32.5
	c-0.1,0.5-0.3,0.9-0.4,1.4c0,0.1-0.1,0.1-0.1,0.2c-0.2,0.5-0.4,1-0.6,1.4c0,0,0,0.1,0,0.1c-0.2,0.4-0.4,0.8-0.7,1.3
	c-0.6,1-1.3,1.9-2.1,2.8c-0.1,0.1-0.2,0.2-0.3,0.3c-0.4,0.5-0.9,0.9-1.4,1.3c-0.2,0.1-0.3,0.2-0.5,0.4c-0.3,0.3-0.7,0.5-1,0.7
	c-0.2,0.1-0.4,0.3-0.6,0.4c-0.3,0.2-0.7,0.4-1,0.6c-0.2,0.1-0.5,0.2-0.7,0.3c-0.2,0.1-0.5,0.2-0.7,0.3c-0.2-0.3-0.3-0.6-0.3-1
	c0-0.6,0.4-1.1,0.7-1.5c0.2-0.2,0.3-0.5,0.3-0.8c0-0.3-0.2-0.6-0.4-0.7c-0.3-0.2-0.5-0.5-0.6-0.8c-0.1-0.3-0.2-0.5-0.5-0.7
	c-0.2-0.1-0.3-0.1-0.5-0.1c-0.1,0-0.2,0-0.3,0c-0.1,0-0.2,0.1-0.3,0.1c-0.7,0-1.5-1-1.5-2.5c0-0.4,0.1-0.8,0.2-1.2
	c0.1-0.3,0.1-0.6-0.1-0.8c-0.1-0.3-0.4-0.4-0.6-0.5c-0.9-0.2-1.5-1-1.5-1.9c0-1.1,0.9-2,2-2c0.9,0,1.6,0.6,1.9,1.4
	c0.1,0.5,0.7,0.8,1.2,0.7l0.3-0.1c0.3-0.1,0.6-0.3,0.7-0.6c0.1-0.3,0.1-0.6,0-0.9c0-0.1,0-0.1,0-0.1c0-0.5,1.5-1.5,4-1.5s4,1,4,1.5
	c0,0,0,0.1-0.1,0.2c-0.2,0.3-0.2,0.6-0.1,0.9c0.1,0.3,0.3,0.5,0.6,0.6c0.4,0.2,0.8,0.4,1.1,0.7C46,32.5,46,32.5,45.9,32.5z
	 M14.6,32.2c0,0,0-0.1,0-0.1c0-1.6,1-2.9,2.2-2.9c1.2,0,2.2,1.3,2.2,2.9c0,1.1-0.5,2.2-1.3,2.7c-0.3,0.2-0.5,0.5-0.5,0.9
	s0.2,0.7,0.5,1c0.5,0.3,0.8,0.9,1.1,1.5c0.2,0.6,0.9,0.9,1.4,0.6c0.5-0.2,1.1-0.3,1.6-0.3c1.6,0,2.6,0.7,2.7,1.1c0,0,0,0.1,0,0.1
	c0,0.6,0.4,1.1,1,1.1c1.9,0.2,3.4,2,3.4,4c0,0.1,0,0.2,0,0.3c-3.4-0.1-6.7-1.3-9.5-3.4c-2.8-2.1-4.8-5-5.9-8.2c0.2,0,0.4,0,0.5-0.1
	c0.4-0.2,0.7-0.6,0.6-1.1L14.6,32.2z M19.1,44.3c3.1,2,6.7,3.1,10.4,3.1c0.1,0,0.3,0,0.4,0c0.2,0,0.3-0.1,0.4-0.2
	c1.9-0.1,3.7-0.4,5.5-1.1c2.8-1,5.3-2.6,7.3-4.7c0.1-0.1,0.2-0.2,0.3-0.3c0.9-1,1.7-2.1,2.4-3.2c0.3-0.6,0.6-1.1,0.8-1.6
	c0,0,0-0.1,0-0.1c0.2-0.4,0.4-0.8,0.5-1.3c0.2-0.6,0.4-1.1,0.6-1.7c0.1-0.3,0.2-0.7,0.2-1c0,0,0,0,0,0c0.3-1.4,0.5-2.7,0.5-4.1
	c0-3.4-0.9-6.8-2.7-9.7c-2.5-4.1-6.4-7.2-11-8.5L36,7.3c2.7,0.8,5.2,2.1,7.4,3.9c0,0,0,0,0.1,0c0.4,0.3,0.7,0.6,1.1,0.9
	c0,0,0,0,0.1,0.1c0.4,0.3,0.7,0.7,1.1,1.1c0,0,0,0,0,0.1c3.7,4.1,5.8,9.3,5.8,14.9c0,12.1-9.9,22-22,22c-4.2,0-8.2-1.2-11.6-3.4
	L19.1,44.3z"/></svg>