<svg xmlns="http://www.w3.org/2000/svg" enable-background="new 0 0 64 64" viewBox="0 0 64 64"><path d="M54.5,41.8H36.3c-0.6,0-1,0.4-1,1v3c0,0.6,0.4,1,1,1h2.3c-0.6,0.4-1.2,0.6-1.8,0.9c-1.4-1.2-3.1-1.9-5-1.9
	c-2,0-3.9,0.8-5.3,2.2c-5.6-2-9.4-7.3-9.4-13.3c0-5.7,3.5-10.9,8.7-13.1c0.5,0.2,1.1,0.4,1.7,0.4c1.1,0,2.1-0.4,2.9-1l9.3,13.5
	c0.2,0.2,0.4,0.4,0.6,0.4c0.1,0,0.1,0,0.2,0c0.2,0,0.4-0.1,0.6-0.2l0.4-0.3c0.3,0.3,0.7,0.6,1.1,0.8l-0.2,1.3
	c-0.1,0.5,0.3,1.1,0.8,1.2c0.1,0,0.1,0,0.2,0c0.5,0,0.9-0.3,1-0.8l0.2-1.2c0.5,0,1-0.1,1.5-0.3l0.5,0.9c0.2,0.3,0.5,0.5,0.9,0.5
	c0.2,0,0.3,0,0.5-0.1c0.5-0.3,0.6-0.9,0.4-1.4l-0.7-1.1c0.3-0.4,0.5-0.9,0.7-1.4h1.2c0.6,0,1-0.4,1-1s-0.4-1-1-1h-1.2
	c-0.1-0.2-0.1-0.5-0.2-0.7l0.5-0.4c0.2-0.2,0.4-0.4,0.4-0.6c0-0.3,0-0.5-0.2-0.7L33.8,6.3c-0.2-0.2-0.4-0.4-0.6-0.4
	c-0.3,0-0.5,0-0.7,0.2l-1.9,1.3l-3.4-4.9c-0.3-0.5-0.9-0.6-1.4-0.3l-3.3,2.3C22.2,4.6,22,4.8,22,5.1c0,0.3,0,0.5,0.2,0.7l3.4,4.9
	l-0.6,0.4c-0.2,0.2-0.4,0.4-0.4,0.6c0,0.3,0,0.5,0.2,0.7l0.7,1c-0.5,0.3-1,0.7-1.3,1.2c-8.4,3-14,11-14,19.9
	c0,8.4,4.8,15.8,12.3,19.2H11.5c-0.6,0-1,0.4-1,1v2.7l-1.9,2.8c-0.2,0.3-0.2,0.7,0,1C8.8,61.8,9.1,62,9.5,62h35.4
	c0.4,0,0.7-0.2,0.9-0.5c0.2-0.3,0.2-0.7,0-1l-1.9-2.8v-2.7c0-0.6-0.4-1-1-1h-2.6c3.4-1.6,6.3-4.1,8.4-7.1h5.8c0.6,0,1-0.4,1-1v-3
	C55.5,42.2,55.1,41.8,54.5,41.8z M31.7,47.8c1.6,0,3,0.6,4.1,1.8c1,1,1.5,2.4,1.5,3.8c0,0,0,0.1,0,0.1c0,0,0,0.1,0,0.1
	c0,0.1,0,0.2,0,0.3H26.2c0,0,0,0,0,0c0-0.2,0-0.3,0-0.5c0-0.7,0.1-1.3,0.3-1.9c0.2-0.6,0.5-1.2,1-1.7c0,0,0,0,0,0
	C28.6,48.6,30.1,47.8,31.7,47.8z M26.3,19.7c-0.8-0.4-1.3-1.3-1.3-2.2c0-0.5,0.1-1,0.4-1.4c0.4-0.6,0.9-1,1.6-1.1c0.2,0,0.3,0,0.5,0
	c1.4,0,2.5,1.1,2.5,2.5c0,0.5-0.1,0.9-0.4,1.3L29.5,19C28.8,20,27.4,20.3,26.3,19.7z M46.3,31.2L46.3,31.2c0.1,0.2,0.1,0.3,0.1,0.5
	c0,1.1-0.9,2-2,2c-0.4,0-0.9-0.1-1.2-0.4l1.2-0.8L46.3,31.2z M32.7,8.3l13.9,20.3l-5.8,4l-9.1-13.3c0,0,0,0,0-0.1
	c0.1-0.2,0.2-0.5,0.2-0.7c0-0.1,0-0.1,0-0.2C32,18,32,17.8,32,17.5c0-0.3,0-0.6-0.1-0.9c0,0,0,0,0-0.1c-0.4-1.8-1.8-3.1-3.6-3.4
	c-0.1,0-0.1,0-0.2,0c-0.2,0-0.4-0.1-0.6-0.1c0,0-0.1,0-0.1,0c0,0-0.1,0-0.1,0l-0.5-0.7l0.6-0.4c0,0,0,0,0,0l3.3-2.3c0,0,0,0,0,0
	L32.7,8.3z M24.3,5.5L26,4.4l2.8,4.1l-1.7,1.2L24.3,5.5z M12,34.7c0-7.5,4.3-14.2,11-17.4c0,0.1,0,0.1,0,0.2c0,0.2,0,0.5,0.1,0.7
	c0,0.1,0,0.1,0,0.2c0,0.2,0.1,0.3,0.1,0.5c0,0.1,0,0.1,0.1,0.2c0.1,0.2,0.1,0.3,0.2,0.5c0,0.1,0.1,0.1,0.1,0.2
	c0.1,0.2,0.2,0.4,0.4,0.6c-5.4,2.7-8.9,8.3-8.9,14.4c0,6.7,4,12.5,10.1,15c0,0,0,0.1,0,0.1c-0.1,0.2-0.2,0.4-0.3,0.5
	c0,0.1-0.1,0.2-0.1,0.3c-0.1,0.1-0.1,0.3-0.2,0.4c0,0.1-0.1,0.2-0.1,0.3c0,0.1-0.1,0.2-0.1,0.4c0,0.1-0.1,0.2-0.1,0.3
	c0,0.1,0,0.2-0.1,0.3c0,0.1,0,0.2,0,0.3C16.9,49.7,12,42.7,12,34.7z M11.4,60l0.7-1h30.3l0.7,1H11.4z M41.9,57H12.5v-1h12.8h12.8
	h3.7V57z M53.5,44.8h-5.4c-0.3,0-0.7,0.2-0.8,0.5c-2,3-4.8,5.4-8.1,6.9c0,0,0-0.1,0-0.1c0-0.1-0.1-0.3-0.1-0.4c0-0.1,0-0.2-0.1-0.3
	c0-0.2-0.1-0.3-0.1-0.5c0-0.1-0.1-0.2-0.1-0.3c-0.1-0.2-0.1-0.3-0.2-0.5c0-0.1,0-0.1-0.1-0.2c-0.1-0.2-0.2-0.4-0.4-0.6c0,0,0,0,0,0
	c1.5-0.7,2.9-1.6,4.1-2.8c0.3-0.3,0.4-0.7,0.3-1.1c-0.2-0.4-0.5-0.6-0.9-0.6h-4.2v-1h16.2V44.8z"/></svg>