<svg xmlns="http://www.w3.org/2000/svg" enable-background="new 0 0 64 64" viewBox="0 0 64 64"><path d="M57.8,2H17.5H9.9c-0.6,0-1,0.4-1,1v4.2c-2.2,0.5-3.8,2.4-3.8,4.7s1.6,4.2,3.8,4.7v0.7c-2.2,0.5-3.8,2.4-3.8,4.7
		s1.6,4.2,3.8,4.7v0.7c-2.2,0.5-3.8,2.4-3.8,4.7s1.6,4.2,3.8,4.7v0.7c-2.2,0.5-3.8,2.4-3.8,4.7s1.6,4.2,3.8,4.7v0.7
		c-2.2,0.5-3.8,2.4-3.8,4.7s1.6,4.2,3.8,4.7V61c0,0.6,0.4,1,1,1h7.6h40.3c0.6,0,1-0.4,1-1V3C58.8,2.4,58.4,2,57.8,2z M7.2,11.8
		c0-1.2,0.7-2.2,1.8-2.6v5.2C7.9,14,7.2,13,7.2,11.8z M7.2,21.9c0-1.2,0.7-2.2,1.8-2.6v5.2C7.9,24.1,7.2,23.1,7.2,21.9z M7.2,32
		c0-1.2,0.7-2.2,1.8-2.6v5.2C7.9,34.2,7.2,33.2,7.2,32z M7.2,42.1c0-1.2,0.7-2.2,1.8-2.6v5.2C7.9,44.3,7.2,43.3,7.2,42.1z M7.2,52.2
		c0-1.2,0.7-2.2,1.8-2.6v5.2C7.9,54.4,7.2,53.4,7.2,52.2z M10.9,56.8c2.2-0.5,3.8-2.4,3.8-4.7c0-0.6-0.4-1-1-1s-1,0.4-1,1
		c0,1.2-0.7,2.2-1.8,2.6v-8c2.2-0.5,3.8-2.4,3.8-4.7c0-0.6-0.4-1-1-1s-1,0.4-1,1c0,1.2-0.7,2.2-1.8,2.6v-8c2.2-0.5,3.8-2.4,3.8-4.7
		c0-0.6-0.4-1-1-1s-1,0.4-1,1c0,1.2-0.7,2.2-1.8,2.6v-8c2.2-0.5,3.8-2.4,3.8-4.7c0-0.6-0.4-1-1-1s-1,0.4-1,1c0,1.2-0.7,2.2-1.8,2.6
		v-8c2.2-0.5,3.8-2.4,3.8-4.7c0-0.6-0.4-1-1-1s-1,0.4-1,1c0,1.2-0.7,2.2-1.8,2.6V4h5.6v56h-5.6V56.8z M56.8,60H18.5V4h38.3V60z"/><path d="M22.5,24.2h30.3c0.6,0,1-0.4,1-1V8c0-0.6-0.4-1-1-1H22.5c-0.6,0-1,0.4-1,1v15.1C21.5,23.7,22,24.2,22.5,24.2z M23.5,9h28.3
		v13.1H23.5V9z"/><path d="M46.5 10.8H26.3c-.6 0-1 .4-1 1s.4 1 1 1h20.2c.6 0 1-.4 1-1S47.1 10.8 46.5 10.8zM46.5 14.6H26.3c-.6 0-1 .4-1 1s.4 1 1 1h20.2c.6 0 1-.4 1-1S47.1 14.6 46.5 14.6zM46.5 18.4H26.3c-.6 0-1 .4-1 1s.4 1 1 1h20.2c.6 0 1-.4 1-1S47.1 18.4 46.5 18.4z"/></svg>