<svg xmlns="http://www.w3.org/2000/svg" enable-background="new 0 0 64 64" viewBox="0 0 64 64"><path d="M52.8,16c-0.3-1-0.9-1.8-1.8-2.2l-3.7-2c0.2-0.8,0.5-1.5,0.7-2.3c0.7-2.2,0.1-4.1-1.3-4.9c-1.4-0.8-3.3-0.2-4.8,1.6
	c-8.9,10.5-17.7,21.3-22.3,31.1c0,0,0,0,0,0c-2.2,4.8-3.5,9.3-3.4,13.4c0,0.2,0,0.4,0,0.5c0.1,2,0.6,3.8,1.3,5.5
	c0.2,0.4,0.5,0.6,0.9,0.6c0.1,0,0.2,0,0.2,0c1.4-0.3,2.7-0.8,3.9-1.4c0.4-0.2,0.8-0.4,1.2-0.7c0,0,0,0,0,0c0.1-0.1,0.2-0.1,0.3-0.2
	c10.7-6.5,17.1-23.6,22.5-41.4l3.4,1.8c0.8,0.5,1.2,1.5,0.7,2.4L43,32.1C42.8,32,42.5,32,42.2,32c-0.3,0.1-0.5,0.2-0.6,0.5l-3.8,7
	c-0.3,0.5-0.1,1.1,0.4,1.4l1.8,1c0.1,0.1,0.3,0.1,0.5,0.1c0.1,0,0.2,0,0.3,0c0.3-0.1,0.5-0.2,0.6-0.5l3.8-7c0.3-0.5,0.1-1.1-0.4-1.4
	l0,0l7.8-14.3C53,17.9,53.1,16.9,52.8,16z M43.4,7.4c0.7-0.9,1.4-1.2,1.9-1.2c0.2,0,0.3,0,0.4,0.1c0.5,0.3,0.8,1.1,0.3,2.6
	c-0.8,2.8-1.7,5.7-2.6,8.4l-5.7-3.1C39.6,11.9,41.5,9.6,43.4,7.4z M32.6,43.2c-3.9-3.6-7.8-5.3-10.8-6.1c3.4-6.7,8.7-14,14.6-21.4
	l6.4,3.5C39.9,28.2,36.7,36.7,32.6,43.2z M21.8,54.1c-0.4,0.2-0.7,0.4-1.1,0.5c-0.1,0-0.2,0.1-0.3,0.1c-0.4,0.2-0.8,0.3-1.3,0.4
	c-0.2-0.4-0.3-0.8-0.4-1.3c0-0.1-0.1-0.2-0.1-0.4c-0.1-0.4-0.2-0.8-0.2-1.2c0,0,0-0.1,0-0.1c0.7,0.1,1.4,0.3,2,0.6
	C20.9,53.1,21.4,53.5,21.8,54.1C21.8,54,21.8,54.1,21.8,54.1z M23.6,53c-0.6-0.8-1.4-1.5-2.3-1.9c-1-0.5-2-0.8-3.1-0.9
	c0-3.5,1-7.2,2.8-11.2c2.8,0.7,6.7,2.2,10.5,5.9C29.2,48.3,26.5,51.1,23.6,53z M40,39.6l0.5-0.9c0,0,0,0,0,0L40,39.6z"/></svg>