<svg xmlns="http://www.w3.org/2000/svg" enable-background="new 0 0 64 64" viewBox="0 0 64 64"><path d="M23.3,29.9c0.8,0.4,1.7,0.6,2.7,0.6s1.8-0.2,2.7-0.6c2.1-1,3.4-3.1,3.4-5.4c0-3.3-2.7-6-6-6c-3.3,0-6,2.7-6,6
		C20,26.8,21.3,28.8,23.3,29.9z M26,20.4c2.2,0,4,1.8,4,4c0,1.6-0.9,2.9-2.3,3.6c-1.1,0.6-2.4,0.6-3.6,0C22.8,27.4,22,26,22,24.4
		C22,22.2,23.8,20.4,26,20.4z"/><path d="M60.4,25.1c0-2.6-2.1-4.8-4.8-4.8c-2.6,0-4.8,2.1-4.8,4.8c0,2.1,1.4,3.8,3.2,4.5c-2.1,9-8.8,16.2-17.6,19.2v-4.5
		c7.4-3.9,12-11.4,12-19.8C48.4,12.1,38.4,2,26,2S3.6,12.1,3.6,24.4c0,8.4,4.6,15.9,12,19.8v9.4H9.6c-0.4,0-0.8,0.2-0.9,0.6
		l-2.5,6.3c-0.1,0.3-0.1,0.7,0.1,0.9C6.5,61.8,6.8,62,7.1,62h37.8c0.3,0,0.6-0.2,0.8-0.4c0.2-0.3,0.2-0.6,0.1-0.9l-2.5-6.3
		c-0.2-0.4-0.5-0.6-0.9-0.6h-5.9v-2.9c9.9-3,17.3-11,19.6-21C58.5,29.6,60.4,27.6,60.4,25.1z M5.6,24.4C5.6,13.2,14.7,4,26,4
		s20.4,9.2,20.4,20.4c0,7.9-4.4,14.9-11.4,18.3c-2.8,1.4-5.8,2.1-9,2.1c-0.4,0-0.8,0-1.2,0c-1.2-0.1-2.3-0.2-3.5-0.5
		c-1.5-0.4-3-0.9-4.4-1.6c0,0,0,0,0,0C10,39.3,5.6,32.3,5.6,24.4z M43.4,60H8.6l1.7-4.3h6.3h18.9h6.3L43.4,60z M17.6,53.7v-8.5
		c0.1,0,0.1,0,0.2,0.1c0.6,0.2,1.2,0.4,1.8,0.6c0,0,0.1,0,0.1,0c0.6,0.2,1.2,0.3,1.9,0.5c0.1,0,0.2,0,0.4,0.1
		c0.6,0.1,1.2,0.2,1.9,0.3c0.1,0,0.2,0,0.3,0c0.7,0.1,1.3,0.1,2,0.1c0.7,0,1.3,0,2-0.1c0.1,0,0.2,0,0.3,0c0.6-0.1,1.2-0.2,1.9-0.3
		c0.1,0,0.2,0,0.4-0.1c0.6-0.1,1.2-0.3,1.9-0.5c0,0,0.1,0,0.1,0c0.6-0.2,1.2-0.4,1.7-0.6c0.1,0,0.1,0,0.2-0.1v8.5H17.6z M55.6,27.8
		c-1.5,0-2.8-1.2-2.8-2.8s1.2-2.8,2.8-2.8s2.8,1.2,2.8,2.8S57.2,27.8,55.6,27.8z"/></svg>