<svg xmlns="http://www.w3.org/2000/svg" enable-background="new 0 0 64 64" viewBox="0 0 64 64"><path d="M18.7 10.9c0-1.6-1.3-2.8-2.8-2.8h-11C3.3 8.1 2 9.4 2 10.9c0 1.5 1.2 2.8 2.7 2.8v36.6c0 3.1 2.5 5.6 5.6 5.6s5.6-2.5 5.6-5.6V13.8C17.4 13.7 18.7 12.5 18.7 10.9zM13.9 34c-1.1-.1-2.1-.5-3.1-1-1.3-.8-2.7-1.2-4.1-1.3V13.8h7.2V34zM4 10.9c0-.5.4-.8.8-.8h11c.5 0 .8.4.8.8 0 .5-.4.8-.8.8h-.9H5.7 4.8C4.4 11.8 4 11.4 4 10.9zM10.3 53.9c-2 0-3.6-1.6-3.6-3.6V33.7c1.1.1 2.1.5 3.1 1 1.3.8 2.6 1.2 4.1 1.3v14.3C13.9 52.3 12.3 53.9 10.3 53.9zM60.6 48.3L45.2 34V13.8c1.5 0 2.7-1.3 2.7-2.8 0-1.6-1.3-2.8-2.8-2.8h-11c-1.6 0-2.8 1.3-2.8 2.8 0 1.5 1.2 2.8 2.7 2.8V34L18.7 48.3c-1.3 1.3-1.8 3.1-1.1 4.8.7 1.7 2.2 2.8 4.1 2.8h36c1.8 0 3.4-1.1 4.1-2.8C62.4 51.4 61.9 49.6 60.6 48.3zM33.3 10.9c0-.5.4-.8.8-.8h11c.5 0 .8.4.8.8 0 .5-.4.8-.8.8h-.9-9.2-.9C33.7 11.8 33.3 11.4 33.3 10.9zM35.7 35.2c.2-.2.3-.5.3-.7V13.8h7.2v20.7c0 .3.1.5.3.7l6.2 5.8c-3.1.3-6.3-.2-9.7-1.6-2.2-.9-4.5-1.5-6.7-1.9L35.7 35.2zM59.8 52.4c-.3.7-1 1.5-2.2 1.5h-36c-1.2 0-1.9-.8-2.2-1.5-.3-.7-.3-1.8.6-2.6l11.3-10.5c2.6.2 5.3.8 7.9 1.9 3 1.3 6 1.9 8.8 1.9 1.2 0 2.4-.1 3.6-.4l7.6 7.1C60.1 50.6 60.1 51.7 59.8 52.4z"/><path d="M8.5 39c.8 0 1.5-.7 1.5-1.5S9.3 36 8.5 36 7 36.7 7 37.5 7.7 39 8.5 39zM8.5 37C8.8 37 9 37.2 9 37.5S8.8 38 8.5 38 8 37.8 8 37.5 8.2 37 8.5 37zM11.5 42c-.8 0-1.5.7-1.5 1.5s.7 1.5 1.5 1.5 1.5-.7 1.5-1.5S12.3 42 11.5 42zM11.5 44c-.3 0-.5-.2-.5-.5s.2-.5.5-.5.5.2.5.5S11.8 44 11.5 44zM24.5 49c-.8 0-1.5.7-1.5 1.5s.7 1.5 1.5 1.5 1.5-.7 1.5-1.5S25.3 49 24.5 49zM24.5 51c-.3 0-.5-.2-.5-.5s.2-.5.5-.5.5.2.5.5S24.8 51 24.5 51zM45.5 45c-.8 0-1.5.7-1.5 1.5s.7 1.5 1.5 1.5 1.5-.7 1.5-1.5S46.3 45 45.5 45zM45.5 47c-.3 0-.5-.2-.5-.5s.2-.5.5-.5.5.2.5.5S45.8 47 45.5 47zM37.5 50c-.8 0-1.5.7-1.5 1.5s.7 1.5 1.5 1.5 1.5-.7 1.5-1.5S38.3 50 37.5 50zM37.5 52c-.3 0-.5-.2-.5-.5s.2-.5.5-.5.5.2.5.5S37.8 52 37.5 52zM32.5 43c-.8 0-1.5.7-1.5 1.5s.7 1.5 1.5 1.5 1.5-.7 1.5-1.5S33.3 43 32.5 43zM32.5 45c-.3 0-.5-.2-.5-.5s.2-.5.5-.5.5.2.5.5S32.8 45 32.5 45zM54.5 49c-.8 0-1.5.7-1.5 1.5s.7 1.5 1.5 1.5 1.5-.7 1.5-1.5S55.3 49 54.5 49zM54.5 51c-.3 0-.5-.2-.5-.5s.2-.5.5-.5.5.2.5.5S54.8 51 54.5 51zM8.5 49C7.7 49 7 49.7 7 50.5S7.7 52 8.5 52s1.5-.7 1.5-1.5S9.3 49 8.5 49zM8.5 51C8.2 51 8 50.8 8 50.5S8.2 50 8.5 50 9 50.2 9 50.5 8.8 51 8.5 51z"/></svg>