<svg xmlns="http://www.w3.org/2000/svg" enable-background="new 0 0 64 64" viewBox="0 0 64 64"><path d="M21,1.9h-0.7c-4.2,0-7.6,3.4-7.6,7.6v1.9v3.2v34.8c0,0.1,0,0.2,0.1,0.4c0,0,0,0.1,0,0.1c0,0,0,0.1,0,0.1l6.9,11.6
		c0.2,0.3,0.5,0.5,0.9,0.5s0.7-0.2,0.9-0.5l6.9-11.6c0,0,0-0.1,0-0.1c0,0,0-0.1,0-0.1c0-0.1,0.1-0.2,0.1-0.4V14.6v-3.2V9.5
		C28.6,5.3,25.2,1.9,21,1.9z M26.5,48.3H14.9V15.7h11.6V48.3z M22.6,55.7h-3.8l-3.1-5.3h10L22.6,55.7z M26.5,13.5H14.9v-1.1h11.6
		V13.5z M20,57.8h1.3l-0.6,1.1L20,57.8z M26.5,10.4H14.9V9.5c0-3,2.4-5.4,5.4-5.4H21c3,0,5.4,2.4,5.4,5.4V10.4z"/><path d="M17.5 42c.6 0 1.1-.5 1.1-1.1V18.8c0-.6-.5-1.1-1.1-1.1s-1.1.5-1.1 1.1V41C16.4 41.5 16.9 42 17.5 42zM20.7 46.2c.6 0 1.1-.5 1.1-1.1V23c0-.6-.5-1.1-1.1-1.1s-1.1.5-1.1 1.1v22.1C19.6 45.8 20.1 46.2 20.7 46.2zM23.8 42c.6 0 1.1-.5 1.1-1.1V18.8c0-.6-.5-1.1-1.1-1.1s-1.1.5-1.1 1.1V41C22.8 41.5 23.2 42 23.8 42zM50.2 2H36.5c-.6 0-1 .4-1 1v58c0 .6.4 1 1 1h13.7c.6 0 1-.4 1-1V3C51.2 2.4 50.7 2 50.2 2zM37.5 60V4h11.7v1.8h-4.3c-.6 0-1 .4-1 1s.4 1 1 1h4.3v1.8H47c-.6 0-1 .4-1 1s.4 1 1 1h2.2v1.8H47c-.6 0-1 .4-1 1s.4 1 1 1h2.2v1.8H47c-.6 0-1 .4-1 1s.4 1 1 1h2.2v1.8H47c-.6 0-1 .4-1 1s.4 1 1 1h2.2v1.8h-4.3c-.6 0-1 .4-1 1s.4 1 1 1h4.3v1.8H47c-.6 0-1 .4-1 1s.4 1 1 1h2.2v1.8H47c-.6 0-1 .4-1 1 0 .6.4 1 1 1h2.2V36H47c-.6 0-1 .4-1 1s.4 1 1 1h2.2v1.8H47c-.6 0-1 .4-1 1s.4 1 1 1h2.2v1.8h-4.3c-.6 0-1 .4-1 1s.4 1 1 1h4.3v1.8H47c-.6 0-1 .4-1 1s.4 1 1 1h2.2v1.8H47c-.6 0-1 .4-1 1s.4 1 1 1h2.2V55H47c-.6 0-1 .4-1 1s.4 1 1 1h2.2v3H37.5z"/></svg>