<svg xmlns="http://www.w3.org/2000/svg" enable-background="new 0 0 64 64" viewBox="0 0 64 64"><path d="M60.6,15.3c1.5-1.8,1.9-4.3,0.8-6.5c-1.1-2.1-3.4-3.4-5.7-3.2l-0.9-1.7c-0.1-0.2-0.3-0.4-0.6-0.5c-0.3-0.1-0.5-0.1-0.8,0.1
	l-7.6,3.9c-0.2,0.1-0.4,0.3-0.5,0.6c-0.1,0.3-0.1,0.5,0.1,0.8l0.7,1.3L16.6,25.1c-0.2,0.1-0.4,0.3-0.5,0.6C16,26,16,26.2,16.2,26.5
	l0.7,1.3l-5.6,2.9l-8.7,4.4c-0.5,0.3-0.7,0.9-0.4,1.3l2.2,4.3c0.1,0.2,0.3,0.4,0.6,0.5c0.1,0,0.2,0,0.3,0c0.2,0,0.3,0,0.5-0.1
	l5.6-2.9c0.5,0.8,1.2,1.4,2.1,1.7c0.4,0.1,0.8,0.2,1.2,0.2c0.6,0,1.3-0.2,1.8-0.4c1.9-1,2.7-3.2,1.9-5.1l1.5-0.8l0.7,1.3
	c0.2,0.3,0.5,0.5,0.9,0.5c0.2,0,0.3,0,0.5-0.1l12.7-6.5l3.6,6.9c-0.1,0.3-0.1,0.7-0.1,1.1c0,0.7,0.1,1.4,0.4,2H37
	c-3.2,0-6,2.2-6.7,5.3l-3.8,15c-0.1,0.3,0,0.6,0.2,0.9s0.5,0.4,0.8,0.4h4c0.4,0,0.8-0.3,1-0.7l4.1-13.2c0.3-1.1,1.4-1.9,2.6-1.9
	c0.5,0,0.8,0.4,0.8,0.8v14c0,0.6,0.4,1,1,1h4.9c0.6,0,1-0.4,1-1v-14c0-0.5,0.4-0.8,0.8-0.8c0.6,0,1.1,0.2,1.6,0.5
	c0.5,0.4,0.8,0.8,1,1.4l4.1,13.2c0.1,0.4,0.5,0.7,1,0.7h4c0.3,0,0.6-0.1,0.8-0.4s0.3-0.6,0.2-0.9l-3.8-15c-0.8-3.1-3.5-5.3-6.7-5.3
	h-1.5c0.3-0.6,0.4-1.3,0.4-2c0-2.1-1.3-4-3.3-4.8l-3.5-6.8l9.6-4.9l0.7,1.3c0.1,0.2,0.3,0.4,0.6,0.5c0.1,0,0.2,0,0.3,0
	c0.2,0,0.3,0,0.5-0.1l7.6-3.9c0.5-0.3,0.7-0.9,0.4-1.3L60.6,15.3z M59.6,9.7c0.6,1.2,0.6,2.5,0,3.6l-2.9-5.7
	C57.9,7.8,59,8.5,59.6,9.7z M5.7,38.9l-1.3-2.6l6.9-3.5l0.3,0.7c0,0,0,0.1-0.1,0.1c-0.1,0.1-0.2,0.3-0.3,0.4c0,0.1-0.1,0.1-0.1,0.2
	c-0.1,0.2-0.2,0.4-0.2,0.6c0,0,0,0.1,0,0.1c-0.1,0.2-0.1,0.4-0.1,0.6c0,0.1,0,0.2,0,0.3c0,0.1,0,0.3,0,0.4c0,0.1,0,0.1,0,0.2
	L5.7,38.9z M15.6,37.9c-0.5,0.3-1,0.3-1.6,0.1c-0.5-0.2-0.9-0.5-1.2-1c-0.1-0.1-0.1-0.3-0.2-0.4c-0.2-0.8,0.1-1.6,0.7-2.1
	c0.1-0.1,0.2-0.2,0.3-0.2c0.1-0.1,0.3-0.1,0.4-0.2c0,0,0.1,0,0.1,0c0.1,0,0.2,0,0.3,0c0,0,0.1,0,0.1,0c0.1,0,0.3,0,0.4,0
	c0,0,0,0,0.1,0c0.1,0,0.2,0.1,0.3,0.1c0,0,0.1,0,0.1,0.1c0.1,0,0.1,0.1,0.2,0.1c0,0,0.1,0.1,0.1,0.1c0.1,0.1,0.2,0.2,0.3,0.3
	c0,0,0,0,0,0c0.1,0.1,0.2,0.2,0.2,0.3c0,0,0,0,0,0C17,36.2,16.6,37.4,15.6,37.9z M17.3,33c-0.1-0.1-0.2-0.1-0.2-0.2
	c-0.1-0.1-0.2-0.1-0.3-0.2c-0.1-0.1-0.2-0.1-0.3-0.2c-0.1-0.1-0.2-0.1-0.3-0.1c-0.1,0-0.2-0.1-0.3-0.1c-0.1,0-0.2-0.1-0.3-0.1
	c-0.1,0-0.2,0-0.3,0c-0.1,0-0.2,0-0.3,0c0,0-0.1,0-0.1,0c-0.1,0-0.1,0-0.2,0c-0.1,0-0.3,0-0.4,0c-0.1,0-0.2,0-0.3,0.1
	c-0.1,0-0.3,0.1-0.4,0.1c0,0-0.1,0-0.1,0L13,31.9l4.7-2.4l1.3,2.6L17.3,33z M54.4,44.9l3.4,13.7h-1.9l-3.8-12.5
	c-0.3-1-0.9-1.8-1.7-2.4c-0.8-0.6-1.8-0.9-2.8-0.9c-1.6,0-2.8,1.3-2.8,2.8v13h-2.9v-13c0-1.6-1.3-2.8-2.8-2.8c-2,0-3.9,1.4-4.5,3.3
	l-3.8,12.5h-1.9l3.4-13.7c0.5-2.2,2.5-3.7,4.8-3.7h3c0.1,0.1,0.2,0.1,0.3,0.2c0.1,0.1,0.3,0.2,0.4,0.3c0.1,0.1,0.2,0.1,0.3,0.2
	c0.7,0.4,1.6,0.6,2.4,0.6c0.9,0,1.7-0.2,2.4-0.6c0.1,0,0.2-0.1,0.3-0.1c0.1-0.1,0.3-0.2,0.4-0.3c0.1-0.1,0.2-0.1,0.2-0.2h3
	C51.9,41.1,53.9,42.7,54.4,44.9z M46.6,37.1c0,0.9-0.3,1.7-1,2.3c-0.9,0.9-2.3,1.1-3.5,0.7c-0.4-0.2-0.8-0.4-1.1-0.7
	c-0.6-0.6-1-1.4-1-2.3c0-0.3,0-0.6,0.1-0.9c0.1-0.2,0.1-0.4,0.2-0.6c0,0,0.1-0.1,0.1-0.1c0.1-0.1,0.2-0.3,0.3-0.4
	c0,0,0.1-0.1,0.1-0.1c0.1-0.1,0.2-0.2,0.4-0.4c0,0,0,0,0.1-0.1c0.3-0.3,0.7-0.4,1-0.6c0.1,0,0.1,0,0.2,0c0.1,0,0.3-0.1,0.4-0.1
	c0.1,0,0.2,0,0.2,0c0.1,0,0.3,0,0.4,0c0.1,0,0.1,0,0.2,0c0.2,0,0.4,0.1,0.6,0.1c0,0,0,0,0,0C45.6,34.4,46.6,35.7,46.6,37.1z
	 M42.7,31.9c-0.2,0-0.5,0.1-0.7,0.1c-0.1,0-0.2,0-0.3,0.1c-0.3,0.1-0.6,0.2-0.9,0.4c0,0,0,0,0,0c-0.3,0.1-0.5,0.3-0.7,0.5
	c-0.1,0.1-0.2,0.1-0.2,0.2c-0.2,0.1-0.3,0.3-0.5,0.5c0,0-0.1,0.1-0.1,0.1l-2.8-5.6l3.6-1.9l2.8,5.5C42.8,31.8,42.8,31.9,42.7,31.9z
	 M21.9,33.3l-2.3-4.4l-0.6-1.2c0,0,0,0,0,0l-0.7-1.3L47,11.8l3.5,6.9L21.9,33.3z M53.4,19.9L47.6,8.7l5.8-3l0.7,1.4c0,0,0,0,0,0
	l1.4,2.7l3.7,7.1L53.4,19.9z"/></svg>